<?xml version="1.0" encoding="UTF-8" standalone="no"?>
<svg width="169px" height="22px" viewBox="0 0 169 22" version="1.1" xmlns="http://www.w3.org/2000/svg" xmlns:xlink="http://www.w3.org/1999/xlink">
    <!-- Generator: sketchtool 39.1 (31720) - http://www.bohemiancoding.com/sketch -->
    <title>AE9B68A1-90C2-4928-8BB8-10A23A95A4E1</title>
    <desc>Created with sketchtool.</desc>
    <defs></defs>
    <g id="Page-3" stroke="none" stroke-width="1" fill="none" fill-rule="evenodd">
        <g id="Каталог-артистов" transform="translate(-55.000000, -34.000000)" fill="#FFFFFF">
            <g id="Header">
                <g id="white-(bw)" transform="translate(55.000000, 34.000000)">
                    <path d="M7.00458117,6.14041146 C7.74088937,6.12083163 8.36577314,6.1991498 8.87925123,6.37536833 C9.39272932,6.55158686 9.86260316,6.80612092 10.2888869,7.13897815 C10.4438991,7.23687733 10.5746887,7.36903925 10.6812597,7.53546786 C10.7878306,7.70189647 10.9089321,7.85363793 11.0445678,7.99069679 C11.0833209,8.02985647 11.1414496,8.07880532 11.2189557,8.13754483 C11.2964619,8.19628434 11.3933431,8.21586389 11.5096023,8.19628405 C11.7033676,8.13754454 11.8729097,8.0151724 12.0182337,7.82916395 C12.1635577,7.6431555 12.3137235,7.50120381 12.4687358,7.40330462 C12.7400072,7.18792642 13.0209627,6.99702587 13.3116107,6.83059726 C13.6022587,6.66416865 13.9219666,6.52221696 14.2707442,6.40473794 C14.4257565,6.34599843 14.5952986,6.30194446 14.7793756,6.2725747 C14.9634527,6.24320494 15.1426829,6.20894074 15.3170717,6.16978107 C15.4139543,6.15020123 15.5059915,6.14041146 15.5931859,6.14041146 L15.8693001,6.14041146 C15.9661827,6.10125179 16.1018164,6.08656713 16.2762052,6.09635705 C16.450594,6.10614697 16.5765396,6.12083163 16.6540457,6.14041146 C16.7509283,6.1599913 16.8962501,6.16978107 17.0900155,6.16978107 C17.2644042,6.20894074 17.4339464,6.24320494 17.5986469,6.2725747 C17.7633474,6.30194446 17.9232014,6.34599843 18.0782136,6.40473794 C18.1750963,6.44389761 18.2671334,6.46837204 18.3543278,6.47816196 C18.4415222,6.48795188 18.5335594,6.51242631 18.630442,6.55158598 C19.5992686,6.98234239 20.2677489,7.64804686 20.635903,8.54871935 C20.7134092,8.70535805 20.7715379,8.87667905 20.8102909,9.0626875 C20.849044,9.24869595 20.8877965,9.44938627 20.9265495,9.66476447 C20.9653026,9.72350398 20.9798348,9.7871375 20.9701465,9.85566693 C20.9604583,9.92419635 20.9653023,9.98782987 20.9846789,10.0465694 L20.9846789,10.3108959 C21.0040554,10.3892152 21.0088994,10.4773231 20.9992112,10.5752223 C20.9895229,10.6731215 20.9846789,10.7710192 20.9846789,10.8689184 L20.9846789,12.0143331 L20.9846789,13.8939881 L20.9846789,19.4742137 C20.9846789,19.7874911 20.9895229,20.1595024 20.9992112,20.5902588 C21.0088994,21.0210152 20.9265504,21.3049186 20.7521616,21.4419774 C20.6746555,21.500717 20.5487099,21.5447709 20.3743212,21.5741407 C20.1999324,21.6035104 20.0158581,21.6181951 19.8220928,21.6181951 C19.6283274,21.6181951 19.4394091,21.6084053 19.255332,21.5888255 C19.071255,21.5692456 18.9404654,21.5300866 18.8629592,21.471347 C18.7467001,21.4126075 18.6691951,21.2951303 18.630442,21.1189117 C18.591689,21.0014327 18.5820008,20.8790606 18.6013774,20.7517916 C18.6207539,20.6245227 18.6110658,20.5021506 18.5723127,20.3846715 C18.5529362,20.2867724 18.5480921,20.17419 18.5577804,20.046921 C18.5674687,19.9196521 18.5723127,19.79728 18.5723127,19.6798009 L18.5723127,18.3581686 L18.5723127,12.7485734 C18.5723127,12.1024387 18.5577805,11.490578 18.5287157,10.9129728 C18.4996509,10.3353676 18.3591732,9.85077395 18.1072783,9.45917721 C17.8166303,8.98926113 17.3709768,8.64661912 16.7703043,8.43124092 C16.6540451,8.39208124 16.5329436,8.36760681 16.4069961,8.3578169 C16.2810487,8.34802698 16.1502591,8.32355255 16.0146233,8.28439288 C15.9371172,8.26481304 15.8111716,8.25991815 15.6367829,8.26970807 C15.4623941,8.27949799 15.3461366,8.29418265 15.288007,8.31376248 C15.1911244,8.33334232 15.0942432,8.33823721 14.9973605,8.32844729 C14.9004779,8.31865737 14.8035966,8.33334203 14.706714,8.3725017 C14.4354425,8.43124121 14.1738633,8.50955938 13.9219684,8.60745857 C12.9143887,9.03821498 12.2362203,9.79202739 11.8874427,10.8689184 C11.7905601,11.2017756 11.7372754,11.5835767 11.7275871,12.0143331 C11.7178989,12.4450896 11.7130548,12.8856293 11.7130548,13.3359655 L11.7130548,17.1833842 L11.7130548,20.0322362 L11.7130548,20.7517916 C11.7130548,20.9965396 11.6646142,21.1874401 11.5677316,21.324499 C11.4708489,21.4811377 11.3061508,21.5692456 11.0736325,21.5888255 C10.8411141,21.6084053 10.5989111,21.6181951 10.3470162,21.6181951 C10.0176151,21.6181951 9.77541211,21.579036 9.62039986,21.5007167 C9.44601108,21.4028175 9.34428581,21.2412862 9.31522101,21.0161181 C9.28615622,20.79095 9.27162404,20.5413108 9.27162404,20.2671931 L9.27162404,17.4770803 L9.27162404,12.6310949 C9.27162404,12.0045401 9.25224779,11.4220487 9.21349473,10.8836032 C9.17474167,10.3451577 9.03910798,9.88014356 8.8065896,9.48854682 C8.59344775,9.13610976 8.35124474,8.87668081 8.0799733,8.7102522 C7.80870185,8.54382358 7.44055328,8.41166167 6.97551652,8.31376248 C6.89801039,8.29418265 6.81566137,8.28439288 6.72846697,8.28439288 L6.45235278,8.28439288 C6.02606908,8.28439288 5.65307644,8.33334173 5.33336367,8.43124092 C5.0136509,8.5291401 4.72785134,8.65640713 4.47595643,8.81304583 C3.48775332,9.42002077 2.82896112,10.3304695 2.49956008,11.5444194 C2.42205396,11.7989573 2.38814554,12.0877555 2.3978338,12.4108229 C2.40752207,12.7338902 2.41236613,13.0520577 2.41236613,13.3653351 L2.41236613,16.6841009 L2.41236613,19.9147578 L2.41236613,20.7077372 C2.41236613,20.9818549 2.35423741,21.1972299 2.23797822,21.3538686 C2.14109556,21.4909275 1.99577375,21.5692456 1.80200843,21.5888255 C1.60824312,21.6084053 1.40479259,21.6181951 1.19165074,21.6181951 L0.755680956,21.6181951 C0.639421766,21.5790354 0.52800838,21.5496661 0.421437456,21.5300863 C0.314866532,21.5105064 0.222829387,21.4517678 0.145323261,21.3538686 C0.0484406025,21.2363896 0,21.0846481 0,20.8986397 L0,20.2965627 L0,18.3875382 L0,9.98783016 L0,7.81447914 L0,7.24177178 C0,7.05576333 0.038752482,6.90402187 0.116258609,6.78654285 C0.174388204,6.66906383 0.261581288,6.59074565 0.377840478,6.55158598 C0.532852731,6.49284647 0.779899804,6.46347715 1.11898911,6.46347715 C1.45807841,6.46347715 1.70512548,6.49284647 1.86013774,6.55158598 C2.01514999,6.62990533 2.12171932,6.72780304 2.17984891,6.84528206 C2.21860197,6.94318125 2.24282228,7.06065851 2.25251054,7.19771736 C2.26219881,7.33477622 2.27673099,7.46204325 2.29610752,7.57952227 C2.31548405,7.69700129 2.35423653,7.79489901 2.41236613,7.87321836 C2.47049572,7.95153771 2.56737693,7.99069679 2.70301265,7.99069679 C2.74176571,7.95153712 2.78536226,7.93195757 2.83380358,7.93195757 C2.88224491,7.93195757 2.92584146,7.91237803 2.96459452,7.87321836 C3.08085371,7.77531917 3.19226709,7.67742146 3.29883802,7.57952227 C3.40540894,7.48162309 3.51682233,7.38372537 3.63308152,7.28582619 C4.05936522,6.9725488 4.54377124,6.6984352 5.08631413,6.46347715 C5.28007944,6.38515781 5.47384185,6.33131406 5.66760717,6.30194431 C5.86137249,6.27257455 6.06482302,6.22852058 6.27796486,6.16978107 C6.39422405,6.16978107 6.51532556,6.16488618 6.64127302,6.15509627 C6.76722047,6.14530635 6.88832198,6.14041146 7.00458117,6.14041146 L7.00458117,6.14041146 L7.00458117,6.14041146 Z M38.6680622,20.5315196 C38.7261918,20.844797 38.6971275,21.1042259 38.5808683,21.3098142 C38.4646091,21.5154025 38.3095992,21.6671439 38.1158339,21.7650431 C38.0189512,21.8042028 37.9172259,21.8237823 37.810655,21.8237823 C37.7040841,21.8237823 37.5926707,21.8433619 37.4764115,21.8825216 C37.0501278,21.9804208 36.6286946,21.9559463 36.2120991,21.8090975 C35.7955037,21.6622488 35.5097042,21.481138 35.3546919,21.2657598 C35.2578092,21.1287009 35.1706162,20.9671697 35.09311,20.7811613 C35.0156039,20.5951528 34.9187227,20.4434113 34.8024635,20.3259323 C34.7637104,20.2867726 34.7201139,20.2476136 34.6716726,20.2084539 C34.6232312,20.1692942 34.5602585,20.1595044 34.4827523,20.1790843 C34.2696105,20.2378238 34.071004,20.3455113 33.886927,20.50215 C33.7028499,20.6587887 33.5236197,20.7958455 33.3492309,20.9133245 C33.097336,21.0699632 32.8260686,21.2119149 32.5354206,21.3391838 C32.2447727,21.4664528 31.9347528,21.5790351 31.6053518,21.6769343 C31.4115865,21.7356738 31.2032919,21.7748329 30.9804618,21.7944127 C30.7576316,21.8139926 30.5396489,21.8433619 30.3265071,21.8825216 C30.2296244,21.9021014 30.1472754,21.9118912 30.0794575,21.9118912 L29.8614726,21.9118912 C29.6483308,21.9510508 29.4448803,21.9510508 29.2511149,21.9118912 L28.9895331,21.9118912 C28.8926504,21.8923113 28.7957692,21.8825216 28.6988866,21.8825216 C28.6020039,21.8825216 28.5148108,21.862942 28.4373047,21.8237823 C28.3597986,21.8042025 28.2968258,21.7993076 28.2483844,21.8090975 C28.1999431,21.8188875 28.1466585,21.8139926 28.0885289,21.7944127 C27.9335166,21.7552531 27.7785067,21.7209889 27.6234944,21.6916191 C27.4684822,21.6622494 27.3231604,21.6181954 27.1875246,21.5594559 C26.6062287,21.304918 26.1363549,21.0161197 25.777889,20.6930524 C25.4194232,20.3699851 25.1239355,19.9147607 24.8914171,19.3273656 C24.7170283,18.8966092 24.6298353,18.3777513 24.6298353,17.7707764 L24.6298353,17.1540146 C24.6492118,17.0561154 24.663744,16.9533228 24.6734322,16.8456337 C24.6831205,16.7379446 24.6976527,16.6253622 24.7170292,16.5078832 C24.7945353,16.292505 24.8720403,16.07713 24.9495464,15.8617518 C25.0270526,15.6463736 25.1239338,15.4505782 25.240193,15.2743597 C25.5889705,14.7065444 26.0636884,14.2855842 26.6643609,14.0114665 C27.2650334,13.7373488 27.9238256,13.4926045 28.6407573,13.2772263 C28.9120287,13.198907 29.1929842,13.1401683 29.4836322,13.1010087 C29.7742801,13.061849 30.0649238,13.0129001 30.3555717,12.9541606 C30.4912075,12.9150009 30.6219971,12.8954214 30.7479445,12.8954214 C30.873892,12.8954214 31.0143697,12.8758419 31.169382,12.8366822 C31.3050177,12.7975225 31.4406514,12.7730481 31.5762871,12.7632582 C31.7119228,12.7534682 31.8572446,12.7289938 32.0122569,12.6898341 C32.4966702,12.5723551 32.9520119,12.4695625 33.3782956,12.3814532 C33.8045792,12.293344 34.1436635,12.0730741 34.3955584,11.7206371 C34.5118176,11.5639984 34.6086988,11.363308 34.6862049,11.1185601 C34.763711,10.8738121 34.763711,10.6045934 34.6862049,10.3108959 C34.5699457,9.84097977 34.4004036,9.46896845 34.1775735,9.19485074 C33.9547434,8.92073302 33.6398795,8.70535805 33.2329723,8.54871935 C33.0004539,8.45082017 32.7243425,8.38229177 32.4046297,8.34313209 C32.0849169,8.30397242 31.7506768,8.28439288 31.4018992,8.28439288 C31.0531216,8.28439288 30.7140374,8.30397242 30.3846364,8.34313209 C30.0552353,8.38229177 29.7742798,8.4410304 29.5417615,8.51934974 C29.2123604,8.63682876 28.8926525,8.80325488 28.5826279,9.01863309 C28.4276157,9.13611211 28.2871379,9.28785357 28.1611905,9.47386202 C28.035243,9.65987047 27.9238297,9.86056078 27.826947,10.075939 C27.7688174,10.2325777 27.7155327,10.3990038 27.6670914,10.5752223 C27.6186501,10.7514409 27.5266129,10.8884977 27.3909772,10.9863968 C27.3134711,11.0451364 27.1826815,11.0891903 26.9986044,11.1185601 C26.8145274,11.1479298 26.625609,11.1626145 26.4318437,11.1626145 C26.2380784,11.1626145 26.04916,11.1479298 25.865083,11.1185601 C25.6810059,11.0891903 25.5502163,11.0451364 25.4727102,10.9863968 C25.395204,10.9276573 25.3370753,10.8297596 25.2983223,10.6927008 C25.2595692,10.5556419 25.2595692,10.4087953 25.2983223,10.2521566 C25.3564519,9.99761876 25.4194246,9.75776936 25.4872425,9.53260123 C25.5550604,9.30743311 25.6374094,9.08716325 25.734292,8.87178504 C26.1024461,8.18649075 26.5674759,7.6529482 27.1293953,7.27114139 C27.6913148,6.88933457 28.3888594,6.58095676 29.2220503,6.34599872 C29.4158156,6.30683905 29.6144221,6.27746973 29.8178757,6.2578899 C30.0213292,6.23831006 30.2296238,6.20894074 30.4427657,6.16978107 C30.5202718,6.15020123 30.6462174,6.14530635 30.8206062,6.15509627 C30.9949949,6.16488618 31.1015643,6.15020153 31.1403173,6.11104185 C32.4966746,6.09146202 33.6786253,6.24809836 34.6862049,6.58095559 C35.6937845,6.91381281 36.4010173,7.55014797 36.8079245,8.48998013 C36.9823133,8.88157687 37.0840386,9.33680125 37.1131034,9.85566693 C37.1421682,10.3745326 37.1567003,10.9178649 37.1567003,11.4856802 L37.1567003,17.9763636 C37.1567003,18.2504814 37.1663885,18.5148052 37.185765,18.7693431 C37.2051415,19.023881 37.2632702,19.2294662 37.3601529,19.3861049 C37.4570356,19.5231637 37.5829811,19.6210614 37.7379934,19.6798009 C37.9123822,19.7581203 38.0770802,19.811964 38.2320925,19.8413338 C38.3871047,19.8707035 38.5033622,19.9637064 38.5808683,20.1203451 C38.6196214,20.1790846 38.6389976,20.2378232 38.6389976,20.2965627 C38.6389976,20.3553022 38.6486857,20.4336204 38.6680622,20.5315196 L38.6680622,20.5315196 L38.6680622,20.5315196 Z M34.511817,17.271493 C34.6280762,16.9973753 34.691049,16.6792078 34.7007372,16.3169808 C34.7104255,15.9547538 34.7152696,15.5778476 34.7152696,15.1862509 C34.7152696,14.9708726 34.7055814,14.7750772 34.6862049,14.5988587 C34.6668284,14.4226402 34.5893234,14.2855833 34.4536877,14.1876842 C34.3955581,14.1485245 34.2599244,14.1289449 34.0467826,14.1289449 C34.0080295,14.1681046 33.9402126,14.1876842 33.84333,14.1876842 C33.7464473,14.1876842 33.6592542,14.2072637 33.5817481,14.2464234 C33.4267359,14.2855831 33.2523497,14.3247421 33.0585844,14.3639018 C32.8648191,14.4030615 32.6710567,14.4422206 32.4772913,14.4813802 C32.4191617,14.4813802 32.356189,14.4862751 32.2883711,14.4960651 C32.2205532,14.505855 32.1478923,14.5107499 32.0703862,14.5107499 C31.7797382,14.5890692 31.4648743,14.6331232 31.125785,14.6429131 C30.7866957,14.652703 30.4718318,14.696757 30.1811838,14.7750763 C30.0261716,14.814236 29.8856938,14.8485002 29.7597464,14.87787 C29.6337989,14.9072397 29.4933212,14.9415039 29.3383089,14.9806636 C29.0282844,15.0785628 28.7376408,15.2009349 28.4663693,15.3477837 C28.1950979,15.4946325 27.962583,15.6757432 27.7688177,15.8911215 C27.5750524,16.1064997 27.4297306,16.3659286 27.3328479,16.6694161 C27.2359652,16.9729035 27.1972128,17.34002 27.2165893,17.7707764 C27.2165893,17.9665748 27.2504977,18.1476855 27.3183156,18.3141141 C27.3861334,18.4805428 27.4684825,18.6322842 27.5653651,18.7693431 C27.7203774,18.9847213 27.9238279,19.1658321 28.1757228,19.3126808 C28.4276177,19.4595296 28.6988851,19.5819018 28.9895331,19.6798009 C29.0864157,19.6993808 29.1832969,19.7091705 29.2801796,19.7091705 C29.3770623,19.7091705 29.4739435,19.7189603 29.5708261,19.7385402 C29.7064618,19.7776998 29.876004,19.8021743 30.0794575,19.8119642 C30.2829111,19.8217541 30.4524532,19.8070694 30.5880889,19.7679098 C30.7043481,19.7287501 30.8206056,19.7140654 30.9368648,19.7238553 C31.053124,19.7336453 31.1693814,19.7189606 31.2856406,19.6798009 C31.4406529,19.6406413 31.5908187,19.6112719 31.7361427,19.5916921 C31.8814667,19.5721123 32.0219444,19.5329532 32.1575802,19.4742137 C32.7194996,19.2392556 33.1990615,18.9553523 33.5962804,18.622495 C33.9934993,18.2896378 34.2986751,17.8393083 34.511817,17.271493 L34.511817,17.271493 L34.511817,17.271493 Z M42.6619945,0.707033907 C42.9332659,0.707033907 43.2190655,0.711928793 43.5194017,0.721718711 C43.819738,0.73150863 44.0280325,0.814721688 44.1442917,0.971360383 C44.2217979,1.06925957 44.2653944,1.1965266 44.2750827,1.35316529 C44.2847709,1.50980399 44.289615,1.68601988 44.289615,1.88181824 L44.289615,3.43840749 L44.289615,9.81161251 L44.289615,10.9276576 C44.289615,11.0255568 44.2847709,11.1283494 44.2750827,11.2360385 C44.2653944,11.3437276 44.2702385,11.4465202 44.289615,11.5444194 L44.289615,11.7793763 C44.289615,11.9751746 44.3186794,12.1416008 44.376809,12.2786596 C44.3961855,12.3373991 44.4252498,12.3814531 44.4640029,12.4108229 C44.502756,12.4401926 44.5415085,12.4744568 44.5802615,12.5136165 C44.7546503,12.5331963 44.8854399,12.5087219 44.9726343,12.4401925 C45.0598287,12.371663 45.1518659,12.2982397 45.2487485,12.2199204 C45.3456312,12.1416011 45.4231361,12.0632829 45.4812657,11.9849635 C45.5393953,11.9066442 45.6072122,11.8381158 45.6847183,11.7793763 C45.8397306,11.6814771 45.9753642,11.5688947 46.0916234,11.4416258 C46.2078826,11.3143568 46.3338282,11.1821949 46.4694639,11.0451361 C46.5663466,10.9472369 46.6583837,10.8591289 46.7455781,10.7808096 C46.8327725,10.7024902 46.9248096,10.6143823 47.0216923,10.5164831 C47.0798219,10.4773234 47.1331066,10.4283746 47.1815479,10.3696351 C47.2299892,10.3108956 47.2735858,10.2619467 47.3123388,10.222787 C47.3510919,10.1836274 47.3801562,10.1591529 47.3995328,10.149363 C47.4189093,10.1395731 47.4479737,10.1150987 47.4867267,10.075939 C47.5642329,9.9780398 47.6417378,9.89482675 47.7192439,9.82629732 C47.7967501,9.75776789 47.8839432,9.6843446 47.9808258,9.60602525 C48.0195789,9.54728574 48.0680195,9.48854711 48.1261491,9.4298076 C48.1842787,9.37106809 48.2424074,9.31232946 48.300537,9.25358995 C48.4749258,9.11653109 48.6347798,8.96968452 48.7801038,8.81304583 C48.9254277,8.65640713 49.0852817,8.50956056 49.2596705,8.3725017 C49.3178001,8.31376219 49.3759288,8.25012867 49.4340584,8.18159925 C49.492188,8.11306982 49.5503167,8.0494363 49.6084463,7.99069679 C49.8603412,7.79489842 50.083168,7.57952345 50.2769333,7.34456541 C50.4706987,7.10960736 50.7032135,6.90402216 50.974485,6.72780363 C51.1294972,6.62990445 51.3281037,6.56627093 51.5703104,6.53690118 C51.812517,6.50753142 52.0789403,6.49284676 52.3695883,6.49284676 C52.466471,6.49284676 52.5681962,6.48795188 52.6747671,6.47816196 C52.7813381,6.46837204 52.8733752,6.47326693 52.9508813,6.49284676 L53.2705925,6.49284676 C53.4256048,6.53200644 53.5515503,6.56627064 53.648433,6.59564039 C53.7453156,6.62501015 53.7937562,6.72780275 53.7937562,6.90402128 C53.7550032,6.94318095 53.7307829,6.99212981 53.7210946,7.05086932 C53.7114064,7.10960883 53.687186,7.15855769 53.648433,7.19771736 C53.6096799,7.25645688 53.5563953,7.3151955 53.4885774,7.37393501 C53.4207595,7.43267453 53.3577868,7.48162338 53.2996572,7.52078306 C53.2609041,7.55994273 53.2366838,7.58931205 53.2269955,7.60889188 C53.2173073,7.62847172 53.193087,7.65784103 53.1543339,7.69700071 C53.0768278,7.73616038 53.0090109,7.79000412 52.9508813,7.85853355 C52.8927517,7.92706298 52.834623,7.98090673 52.7764934,8.0200664 C52.7183638,8.07880591 52.6602351,8.13264965 52.6021055,8.18159925 C52.5439759,8.23054884 52.4955353,8.28439258 52.4567822,8.34313209 C52.30177,8.46061111 52.1564482,8.58787814 52.0208125,8.724937 C51.8851767,8.86199586 51.7398549,8.98926289 51.5848427,9.10674191 C51.5460896,9.14590158 51.497649,9.19485044 51.4395194,9.25358995 C51.3813898,9.31232946 51.3329492,9.37106809 51.2941962,9.4298076 C51.1004308,9.56686646 50.9260447,9.71860792 50.7710324,9.88503653 C50.6160202,10.0514651 50.441634,10.2032066 50.2478687,10.3402655 C50.2091156,10.399005 50.160675,10.4528487 50.1025454,10.5017983 C50.0444158,10.5507479 49.9959752,10.6045916 49.9572222,10.6633312 C49.8603395,10.7416505 49.7731464,10.8199687 49.6956403,10.898288 C49.6181342,10.9766074 49.5309411,11.0549255 49.4340584,11.1332449 C49.3371758,11.2115642 49.2451386,11.2947773 49.1579442,11.3828866 C49.0707498,11.4709958 48.9980889,11.5639987 48.9399593,11.6618978 C48.9012063,11.7010575 48.8527657,11.7695859 48.7946361,11.8674851 C48.7365065,11.9653843 48.7268184,12.063282 48.7655714,12.1611812 C48.8043245,12.3765594 48.8769854,12.5527753 48.9835563,12.6898341 C49.0901272,12.826893 49.1918525,12.9737396 49.2887352,13.1303783 C49.4437474,13.3457565 49.5890692,13.5660263 49.7247049,13.7911945 C49.8603407,14.0163626 49.9959744,14.2366324 50.1316101,14.4520106 C50.674153,15.254784 51.2069996,16.0477554 51.7301659,16.8309489 C52.2533323,17.6141424 52.7764908,18.4169037 53.2996572,19.2392568 C53.4159164,19.3958955 53.5224857,19.5525318 53.6193683,19.7091705 C53.716251,19.8658092 53.8228203,20.0224456 53.9390795,20.1790843 C54.0165856,20.2965633 54.0940906,20.4091457 54.1715967,20.5168348 C54.2491029,20.6245239 54.3169197,20.746896 54.3750493,20.8839549 C54.4525554,21.0405936 54.4816198,21.1825453 54.4622432,21.3098142 C54.4428667,21.4370831 54.3556736,21.5202962 54.2006614,21.5594559 C54.1037787,21.5986155 53.9875213,21.6181951 53.8518856,21.6181951 L53.4740451,21.6181951 C53.2027736,21.6181951 52.9266622,21.62309 52.6457025,21.6328799 C52.3647428,21.6426698 52.1370719,21.6084056 51.9626832,21.5300863 C51.7107883,21.4126072 51.4831174,21.1825476 51.2796638,20.8399005 C51.0762103,20.4972533 50.89698,20.2182448 50.7419678,20.0028666 C50.2963075,19.3175723 49.8603421,18.646973 49.4340584,17.9910485 C49.0077747,17.3351239 48.5718093,16.6743143 48.1261491,16.0085999 C47.9517603,15.7344822 47.7822182,15.4652635 47.6175177,15.2009357 C47.4528171,14.9366079 47.2735869,14.6673891 47.0798216,14.3932714 C47.021692,14.3149521 46.939343,14.2268441 46.8327721,14.1289449 C46.7262011,14.0310458 46.5954115,14.0016764 46.4403993,14.0408361 C46.285387,14.0799958 46.1545974,14.1534191 46.0480264,14.2611082 C45.9414555,14.3687973 45.8300421,14.4715899 45.7137829,14.5694891 C45.6169003,14.6478084 45.5248631,14.7359164 45.4376688,14.8338155 C45.3504744,14.9317147 45.2584372,15.0198227 45.1615546,15.098142 C44.9484127,15.2547807 44.7691825,15.4261017 44.6238585,15.6121102 C44.4785345,15.7981186 44.3768092,16.037968 44.3186796,16.3316656 C44.3186796,16.4099849 44.3138356,16.4883031 44.3041473,16.5666224 C44.2944591,16.6449418 44.289615,16.72326 44.289615,16.8015793 C44.2702385,16.8994785 44.2653944,17.0169558 44.2750827,17.1540146 C44.2847709,17.2910735 44.289615,17.4183405 44.289615,17.5358195 L44.289615,19.9147578 L44.289615,20.7371068 C44.289615,21.0112246 44.2411744,21.2265995 44.1442917,21.3832382 C44.0474091,21.5202971 43.882711,21.5937204 43.6501926,21.6035103 C43.4176743,21.6133002 43.1754713,21.6181951 42.9235763,21.6181951 L42.6038652,21.6181951 C42.5069825,21.6181951 42.4101013,21.5986155 42.3132186,21.5594559 C42.0807003,21.4811365 41.9499106,21.3147104 41.9208458,21.0601725 C41.891781,20.8056347 41.8772489,20.5119415 41.8772489,20.1790843 L41.8772489,16.7722097 L41.8772489,5.02436634 L41.8772489,2.26362315 C41.8772489,2.04824495 41.8724048,1.8230802 41.8627165,1.58812216 C41.8530283,1.35316412 41.8966248,1.16715846 41.9935075,1.0300996 C42.0710136,0.893040742 42.2163354,0.795143026 42.4294773,0.736403516 C42.4682303,0.716823679 42.5069828,0.711928793 42.5457359,0.721718711 C42.5844889,0.73150863 42.6232414,0.726613744 42.6619945,0.707033907 L42.6619945,0.707033907 L42.6619945,0.707033907 Z M70.4598768,13.453444 C70.4986299,13.6492423 70.5034739,13.8695122 70.4744091,14.1142601 C70.4453443,14.3590081 70.3823716,14.5303291 70.2854889,14.6282283 C70.1886062,14.7065476 70.0481285,14.7603914 69.8640514,14.7897611 C69.6799744,14.8191309 69.4716798,14.8338155 69.2391614,14.8338155 C69.006643,14.8338155 68.7741282,14.8289207 68.5416098,14.8191307 C68.3090914,14.8093408 68.1056409,14.8044459 67.9312521,14.8044459 L60.4907011,14.8044459 C60.3356889,14.8044459 60.1806789,14.8093408 60.0256667,14.8191307 C59.8706544,14.8289207 59.7447089,14.8631849 59.6478262,14.9219244 C59.5703201,14.961084 59.4928151,15.0394022 59.415309,15.1568812 C59.3765559,15.2156208 59.3378035,15.2988338 59.2990504,15.4065229 C59.2602973,15.514212 59.2602973,15.6170046 59.2990504,15.7149038 C59.3184269,15.812803 59.328115,15.9009109 59.328115,15.9792303 C59.328115,16.0575496 59.3378032,16.1358678 59.3571797,16.2141871 C59.3959328,16.3708258 59.4346852,16.5323571 59.4734383,16.6987857 C59.5121914,16.8652143 59.5703201,17.0267455 59.6478262,17.1833842 C60.0934864,18.2406954 60.8297836,18.9945078 61.8567398,19.4448441 C61.972999,19.5035836 62.0989445,19.5525324 62.2345803,19.5916921 C62.370216,19.6308518 62.5058497,19.6700109 62.6414854,19.7091705 C62.699615,19.7287504 62.7964962,19.7385402 62.9321319,19.7385402 C63.2034034,19.8168595 63.5618638,19.8560186 64.007524,19.8560186 C64.4531843,19.8560186 64.8116447,19.8168595 65.0829162,19.7385402 C65.3541876,19.6602208 65.6012347,19.5770077 65.8240648,19.4888985 C66.0468949,19.4007892 66.2551895,19.2882068 66.4489548,19.151148 C66.6620967,19.0140891 66.846171,18.8525579 67.0011832,18.6665494 C67.1561955,18.480541 67.2918291,18.2798507 67.4080883,18.0644725 C67.5243475,17.8686741 67.6260728,17.6630889 67.7132672,17.4477107 C67.8004616,17.2323325 67.9506274,17.0756961 68.1637693,16.977797 C68.2412754,16.9386373 68.367221,16.909268 68.5416098,16.8896881 C68.7159986,16.8701083 68.8903847,16.8652134 69.0647735,16.8750033 C69.2391623,16.8847933 69.4038603,16.8994779 69.5588726,16.9190577 C69.7138849,16.9386376 69.8204542,16.9777967 69.8785838,17.0365362 C70.0723491,17.173595 70.1207897,17.3987598 70.023907,17.7120372 C69.8688948,18.2406928 69.6654442,18.7106018 69.4135493,19.1217784 C69.0260187,19.7483332 68.5852092,20.2622962 68.0911077,20.6636828 C67.5970061,21.0650695 66.9721223,21.3930268 66.2164376,21.6475647 C66.0226723,21.725884 65.8289099,21.7797278 65.6351446,21.8090975 C65.4413792,21.8384673 65.2379287,21.8727315 65.0247869,21.9118912 C64.9279042,21.931471 64.8358671,21.9412608 64.7486727,21.9412608 C64.6614783,21.9412608 64.5694411,21.9510506 64.4725585,21.9706304 L64.1819119,21.9706304 C64.0850293,21.9902102 63.9736159,22 63.8476685,22 C63.721721,22 63.6199957,21.9902102 63.5424896,21.9706304 L63.2809077,21.9706304 C63.1840251,21.9510506 63.096832,21.9412608 63.0193259,21.9412608 C62.9418197,21.9412608 62.8643148,21.931471 62.7868086,21.9118912 C62.689926,21.8923113 62.5833567,21.8776267 62.4670975,21.8678368 C62.3508383,21.8580468 62.244269,21.8433622 62.1473863,21.8237823 C61.9729975,21.7846227 61.7986113,21.7405687 61.6242226,21.6916191 C61.4498338,21.6426695 61.2851357,21.5888258 61.1301235,21.5300863 C61.0526173,21.4909266 60.9848005,21.4664522 60.9266709,21.4566622 C60.8685413,21.4468723 60.8007245,21.4223979 60.7232183,21.3832382 C60.4325704,21.2461794 60.1225505,21.0797532 59.7931495,20.8839549 C59.2312301,20.511938 58.7516681,20.0567136 58.3544492,19.5182681 C57.9572303,18.9798226 57.6229901,18.3777516 57.3517187,17.7120372 C57.254836,17.496659 57.1821751,17.2714942 57.1337338,17.0365362 C57.0852925,16.8015781 57.0223197,16.5666236 56.9448136,16.3316656 C56.925437,16.2533462 56.9157489,16.1848178 56.9157489,16.1260783 C56.9157489,16.0673388 56.9060608,15.9890206 56.8866843,15.8911215 C56.8479312,15.7344828 56.8188668,15.5680566 56.7994903,15.3918381 C56.7801138,15.2156196 56.7510494,15.0394037 56.7122963,14.8631852 L56.7122963,14.4520106 C56.6929198,14.3736913 56.6783876,14.2611089 56.6686994,14.1142601 C56.6590111,13.9674114 56.6638552,13.8450392 56.6832317,13.74714 L56.6832317,13.4240743 C56.7219848,13.3261752 56.7365169,13.2233826 56.7268287,13.1156935 C56.7171404,13.0080044 56.7219845,12.9052118 56.741361,12.8073126 C56.8188671,12.4940352 56.8818399,12.1807625 56.9302812,11.8674851 C56.9787226,11.5542077 57.0610716,11.2605146 57.1773308,10.9863968 C57.2742134,10.7710186 57.3662506,10.5507488 57.453445,10.3255807 C57.5406394,10.1004125 57.6423646,9.88014268 57.7586238,9.66476447 C58.1849075,8.97947018 58.6693135,8.387189 59.2118564,7.88790316 C59.7543993,7.38861732 60.4228796,6.97255203 61.2173174,6.6396948 C61.4498358,6.54179562 61.6871948,6.46837233 61.9294014,6.41942274 C62.1716081,6.37047315 62.4283432,6.31662941 62.6996147,6.2578899 C62.7964973,6.23831006 62.8836904,6.2236254 62.9611966,6.21383548 C63.0387027,6.20404556 63.1258958,6.19915068 63.2227784,6.19915068 C63.2615315,6.17957084 63.3099721,6.17957084 63.3681017,6.19915068 C63.4262313,6.21873052 63.4746719,6.20894074 63.513425,6.16978107 C64.3272393,6.15020123 65.0344721,6.23341429 65.6351446,6.41942274 C66.235817,6.60543119 66.7783518,6.85507037 67.2627651,7.16834776 C67.3596477,7.20750743 67.4371527,7.26135117 67.4952823,7.3298806 C67.5534119,7.39841003 67.6212287,7.45225377 67.6987349,7.49141345 C67.8537471,7.60889247 68.0136011,7.74594927 68.1783016,7.90258797 C68.3430021,8.05922666 68.4834799,8.21586301 68.5997391,8.3725017 C68.9097636,8.78367827 69.1713428,9.17526914 69.3844847,9.54728604 C69.5201204,9.76266424 69.6266897,9.99761876 69.7041959,10.2521566 C69.781702,10.5066945 69.8688951,10.7612286 69.9657777,11.0157665 C70.0626604,11.2703043 70.1353213,11.5346282 70.1837626,11.8087459 C70.2322039,12.0828636 70.2951767,12.3569772 70.3726829,12.6310949 C70.3920594,12.7681538 70.4065916,12.9052106 70.4162798,13.0422694 C70.4259681,13.1793283 70.4405003,13.3163851 70.4598768,13.453444 L70.4598768,13.453444 L70.4598768,13.453444 Z M67.6406056,12.4548773 C67.6987352,12.3765579 67.7471758,12.2737653 67.7859288,12.1464964 C67.8246819,12.0192274 67.8246819,11.8870655 67.7859288,11.7500067 C67.6696696,11.3192503 67.5049716,10.9178696 67.2918297,10.5458527 C67.0205583,10.0955165 66.7202266,9.71371538 66.3908255,9.40043799 C66.0614245,9.08716061 65.6351472,8.82283677 65.1119808,8.60745857 C64.9763451,8.56829889 64.8407114,8.53403469 64.7050757,8.50466494 C64.56944,8.47529518 64.4241182,8.44103098 64.2691059,8.40187131 C64.1140937,8.36271164 63.9493956,8.34313209 63.7750068,8.34313209 L63.2809077,8.34313209 C63.2227781,8.38229177 63.1549613,8.39697642 63.0774552,8.3871865 C62.999949,8.37739659 62.9321322,8.38229147 62.8740026,8.40187131 C62.7189903,8.44103098 62.5688245,8.47529518 62.4235005,8.50466494 C62.2781765,8.53403469 62.1376988,8.56829889 62.002063,8.60745857 C61.4401436,8.84241661 60.989646,9.13610976 60.6505567,9.48854682 C60.3114674,9.84098388 60.0062916,10.2815236 59.7350202,10.8101792 C59.6768906,10.9080784 59.6187619,11.0304505 59.5606323,11.1772993 C59.5025027,11.3241481 59.4540621,11.4856793 59.415309,11.6618978 C59.3765559,11.8381164 59.3668678,12.0045425 59.3862443,12.1611812 C59.4056209,12.3178199 59.4734377,12.4352971 59.5896969,12.5136165 C59.7447092,12.6310955 60.0111325,12.6849393 60.3889748,12.6751493 C60.7668172,12.6653594 61.0913692,12.6604645 61.3626407,12.6604645 L65.7804678,12.6604645 C66.0711158,12.6604645 66.4198881,12.6653594 66.8267953,12.6751493 C67.2337025,12.6849393 67.5049698,12.611516 67.6406056,12.4548773 L67.6406056,12.4548773 L67.6406056,12.4548773 Z M75.0932314,18.4169078 C75.2676202,18.4169078 75.4613826,18.4120129 75.6745244,18.402223 C75.8876663,18.3924331 76.0959609,18.3924331 76.2994145,18.402223 C76.502868,18.4120129 76.6917864,18.4315924 76.8661752,18.4609622 C77.040564,18.4903319 77.1761976,18.5441757 77.2730803,18.622495 C77.3118334,18.6616547 77.3457418,18.7203933 77.3748066,18.7987127 C77.4038714,18.877032 77.4377798,18.96514 77.4765329,19.0630392 L77.4765329,19.2098872 C77.4959094,19.3077864 77.5007535,19.410579 77.4910652,19.5182681 C77.4813769,19.6259572 77.4765329,19.7287498 77.4765329,19.826649 L77.4765329,20.7517916 C77.4765329,21.0944388 77.3990279,21.3342882 77.2440156,21.471347 C77.1083799,21.5692462 76.9388378,21.6181951 76.7353842,21.6181951 L76.0814296,21.6181951 L75.2240223,21.6181951 C74.9236861,21.6181951 74.6960153,21.5594565 74.541003,21.4419774 C74.4634969,21.3832379 74.4053682,21.2804453 74.3666151,21.1335966 C74.327862,20.9867478 74.3036417,20.8203217 74.2939535,20.6343132 C74.2842652,20.4483048 74.2842652,20.2622991 74.2939535,20.0762906 C74.3036417,19.8902822 74.3084858,19.728751 74.3084858,19.5916921 L74.3084858,19.2098872 C74.3084858,19.0924082 74.327862,18.9847207 74.3666151,18.8868215 C74.4441212,18.6714433 74.5797549,18.5343865 74.7735202,18.475647 C74.8316498,18.475647 74.9382191,18.4560674 75.0932314,18.4169078 L75.0932314,18.4169078 L75.0932314,18.4169078 Z M95.5086921,13.453444 C95.5474451,13.6492423 95.5522892,13.8695122 95.5232244,14.1142601 C95.4941596,14.3590081 95.4311868,14.5303291 95.3343042,14.6282283 C95.2374215,14.7065476 95.0969438,14.7603914 94.9128667,14.7897611 C94.7287897,14.8191309 94.5204951,14.8338155 94.2879767,14.8338155 C94.0554583,14.8338155 93.8229434,14.8289207 93.590425,14.8191307 C93.3579067,14.8093408 93.1544561,14.8044459 92.9800673,14.8044459 L85.5395164,14.8044459 C85.3845041,14.8044459 85.2294942,14.8093408 85.074482,14.8191307 C84.9194697,14.8289207 84.7935241,14.8631849 84.6966415,14.9219244 C84.6191354,14.961084 84.5416304,15.0394022 84.4641243,15.1568812 C84.4253712,15.2156208 84.3866187,15.2988338 84.3478657,15.4065229 C84.3091126,15.514212 84.3091126,15.6170046 84.3478657,15.7149038 C84.3672422,15.812803 84.3769303,15.9009109 84.3769303,15.9792303 C84.3769303,16.0575496 84.3866184,16.1358678 84.405995,16.2141871 C84.444748,16.3708258 84.4835005,16.5323571 84.5222536,16.6987857 C84.5610066,16.8652143 84.6191354,17.0267455 84.6966415,17.1833842 C85.1423017,18.2406954 85.8785989,18.9945078 86.905555,19.4448441 C87.0218142,19.5035836 87.1477598,19.5525324 87.2833955,19.5916921 C87.4190312,19.6308518 87.5546649,19.6700109 87.6903007,19.7091705 C87.7484303,19.7287504 87.8453115,19.7385402 87.9809472,19.7385402 C88.2522186,19.8168595 88.6106791,19.8560186 89.0563393,19.8560186 C89.5019995,19.8560186 89.86046,19.8168595 90.1317314,19.7385402 C90.4030029,19.6602208 90.65005,19.5770077 90.8728801,19.4888985 C91.0957102,19.4007892 91.3040048,19.2882068 91.4977701,19.151148 C91.7109119,19.0140891 91.8949862,18.8525579 92.0499985,18.6665494 C92.2050107,18.480541 92.3406444,18.2798507 92.4569036,18.0644725 C92.5731628,17.8686741 92.6748881,17.6630889 92.7620825,17.4477107 C92.8492768,17.2323325 92.9994427,17.0756961 93.2125846,16.977797 C93.2900907,16.9386373 93.4160363,16.909268 93.590425,16.8896881 C93.7648138,16.8701083 93.9392,16.8652134 94.1135888,16.8750033 C94.2879776,16.8847933 94.4526756,16.8994779 94.6076879,16.9190577 C94.7627001,16.9386376 94.8692694,16.9777967 94.927399,17.0365362 C95.1211644,17.173595 95.169605,17.3987598 95.0727223,17.7120372 C94.91771,18.2406928 94.7142595,18.7106018 94.4623646,19.1217784 C94.074834,19.7483332 93.6340245,20.2622962 93.1399229,20.6636828 C92.6458214,21.0650695 92.0209376,21.3930268 91.2652529,21.6475647 C91.0714876,21.725884 90.8777251,21.7797278 90.6839598,21.8090975 C90.4901945,21.8384673 90.286744,21.8727315 90.0736021,21.9118912 C89.9767195,21.931471 89.8846823,21.9412608 89.7974879,21.9412608 C89.7102935,21.9412608 89.6182564,21.9510506 89.5213737,21.9706304 L89.2307272,21.9706304 C89.1338446,21.9902102 89.0224312,22 88.8964837,22 C88.7705363,22 88.668811,21.9902102 88.5913049,21.9706304 L88.329723,21.9706304 C88.2328403,21.9510506 88.1456473,21.9412608 88.0681411,21.9412608 C87.990635,21.9412608 87.91313,21.931471 87.8356239,21.9118912 C87.7387413,21.8923113 87.6321719,21.8776267 87.5159127,21.8678368 C87.3996536,21.8580468 87.2930842,21.8433622 87.1962016,21.8237823 C87.0218128,21.7846227 86.8474266,21.7405687 86.6730378,21.6916191 C86.498649,21.6426695 86.333951,21.5888258 86.1789387,21.5300863 C86.1014326,21.4909266 86.0336158,21.4664522 85.9754862,21.4566622 C85.9173566,21.4468723 85.8495397,21.4223979 85.7720336,21.3832382 C85.4813856,21.2461794 85.1713658,21.0797532 84.8419647,20.8839549 C84.2800453,20.511938 83.8004834,20.0567136 83.4032645,19.5182681 C83.0060456,18.9798226 82.6718054,18.3777516 82.400534,17.7120372 C82.3036513,17.496659 82.2309904,17.2714942 82.1825491,17.0365362 C82.1341077,16.8015781 82.071135,16.5666236 81.9936288,16.3316656 C81.9742523,16.2533462 81.9645642,16.1848178 81.9645642,16.1260783 C81.9645642,16.0673388 81.9548761,15.9890206 81.9354995,15.8911215 C81.8967465,15.7344828 81.8676821,15.5680566 81.8483056,15.3918381 C81.828929,15.2156196 81.7998647,15.0394037 81.7611116,14.8631852 L81.7611116,14.4520106 C81.7417351,14.3736913 81.7272029,14.2611089 81.7175146,14.1142601 C81.7078264,13.9674114 81.7126704,13.8450392 81.732047,13.74714 L81.732047,13.4240743 C81.7708,13.3261752 81.7853322,13.2233826 81.7756439,13.1156935 C81.7659557,13.0080044 81.7707997,12.9052118 81.7901763,12.8073126 C81.8676824,12.4940352 81.9306552,12.1807625 81.9790965,11.8674851 C82.0275378,11.5542077 82.1098869,11.2605146 82.2261461,10.9863968 C82.3230287,10.7710186 82.4150659,10.5507488 82.5022602,10.3255807 C82.5894546,10.1004125 82.6911799,9.88014268 82.8074391,9.66476447 C83.2337228,8.97947018 83.7181288,8.387189 84.2606717,7.88790316 C84.8032146,7.38861732 85.4716949,6.97255203 86.2661327,6.6396948 C86.4986511,6.54179562 86.73601,6.46837233 86.9782167,6.41942274 C87.2204233,6.37047315 87.4771585,6.31662941 87.74843,6.2578899 C87.8453126,6.23831006 87.9325057,6.2236254 88.0100118,6.21383548 C88.087518,6.20404556 88.174711,6.19915068 88.2715937,6.19915068 C88.3103468,6.17957084 88.3587874,6.17957084 88.416917,6.19915068 C88.4750466,6.21873052 88.5234872,6.20894074 88.5622402,6.16978107 C89.3760546,6.15020123 90.0832873,6.23341429 90.6839598,6.41942274 C91.2846323,6.60543119 91.8271671,6.85507037 92.3115803,7.16834776 C92.408463,7.20750743 92.485968,7.26135117 92.5440976,7.3298806 C92.6022272,7.39841003 92.670044,7.45225377 92.7475501,7.49141345 C92.9025624,7.60889247 93.0624164,7.74594927 93.2271169,7.90258797 C93.3918174,8.05922666 93.5322952,8.21586301 93.6485543,8.3725017 C93.9585789,8.78367827 94.2201581,9.17526914 94.4333,9.54728604 C94.5689357,9.76266424 94.675505,9.99761876 94.7530111,10.2521566 C94.8305173,10.5066945 94.9177103,10.7612286 95.014593,11.0157665 C95.1114757,11.2703043 95.1841366,11.5346282 95.2325779,11.8087459 C95.2810192,12.0828636 95.343992,12.3569772 95.4214981,12.6310949 C95.4408747,12.7681538 95.4554068,12.9052106 95.4650951,13.0422694 C95.4747834,13.1793283 95.4893156,13.3163851 95.5086921,13.453444 L95.5086921,13.453444 L95.5086921,13.453444 Z M92.6894208,12.4548773 C92.7475504,12.3765579 92.795991,12.2737653 92.8347441,12.1464964 C92.8734972,12.0192274 92.8734972,11.8870655 92.8347441,11.7500067 C92.7184849,11.3192503 92.5537868,10.9178696 92.340645,10.5458527 C92.0693736,10.0955165 91.7690418,9.71371538 91.4396408,9.40043799 C91.1102397,9.08716061 90.6839624,8.82283677 90.1607961,8.60745857 C90.0251604,8.56829889 89.8895267,8.53403469 89.753891,8.50466494 C89.6182552,8.47529518 89.4729334,8.44103098 89.3179212,8.40187131 C89.1629089,8.36271164 88.9982109,8.34313209 88.8238221,8.34313209 L88.329723,8.34313209 C88.2715934,8.38229177 88.2037766,8.39697642 88.1262704,8.3871865 C88.0487643,8.37739659 87.9809475,8.38229147 87.9228179,8.40187131 C87.7678056,8.44103098 87.6176398,8.47529518 87.4723158,8.50466494 C87.3269918,8.53403469 87.186514,8.56829889 87.0508783,8.60745857 C86.4889589,8.84241661 86.0384613,9.13610976 85.699372,9.48854682 C85.3602827,9.84098388 85.0551069,10.2815236 84.7838354,10.8101792 C84.7257058,10.9080784 84.6675771,11.0304505 84.6094475,11.1772993 C84.5513179,11.3241481 84.5028773,11.4856793 84.4641243,11.6618978 C84.4253712,11.8381164 84.4156831,12.0045425 84.4350596,12.1611812 C84.4544361,12.3178199 84.522253,12.4352971 84.6385122,12.5136165 C84.7935244,12.6310955 85.0599477,12.6849393 85.4377901,12.6751493 C85.8156325,12.6653594 86.1401845,12.6604645 86.411456,12.6604645 L90.8292831,12.6604645 C91.1199311,12.6604645 91.4687034,12.6653594 91.8756106,12.6751493 C92.2825177,12.6849393 92.5537851,12.611516 92.6894208,12.4548773 L92.6894208,12.4548773 L92.6894208,12.4548773 Z M98.2819089,6.49284676 L99.2119778,6.49284676 C99.5413788,6.49284676 99.79327,6.55158539 99.9676587,6.66906441 C100.103294,6.7669636 100.195332,6.88933574 100.243773,7.03618452 C100.292214,7.18303329 100.345499,7.33477475 100.403629,7.49141345 C100.519888,7.76553116 100.616769,8.03964477 100.694275,8.31376248 C100.771781,8.5878802 100.858974,8.8619938 100.955857,9.13611152 C101.343388,10.1934227 101.701848,11.2556129 102.031249,12.322714 C102.36065,13.3898151 102.719111,14.4520054 103.106641,15.5093165 C103.242277,15.8617536 103.358534,16.2190803 103.455417,16.5813072 C103.5523,16.9435342 103.678245,17.3008609 103.833257,17.653298 C103.872011,17.7903568 103.920451,17.9372034 103.978581,18.0938421 C104.03671,18.2504808 104.133592,18.3483785 104.269227,18.3875382 C104.42424,18.4266978 104.545341,18.3581694 104.632535,18.1819509 C104.71973,18.0057324 104.782703,17.8686756 104.821456,17.7707764 C104.976468,17.3987595 105.107258,17.0218533 105.213828,16.6400465 C105.320399,16.2582396 105.441501,15.8715437 105.577137,15.4799469 C105.829032,14.7359131 106.071235,13.9967854 106.303753,13.2625415 C106.536271,12.5282976 106.778474,11.7891699 107.030369,11.0451361 C107.127252,10.7122788 107.224133,10.3843215 107.321016,10.0612542 C107.417898,9.73818688 107.534156,9.4200193 107.669792,9.10674191 C107.766674,8.8326242 107.853867,8.55851059 107.931373,8.28439288 C108.00888,8.01027516 108.096073,7.73616156 108.192955,7.46204384 C108.231708,7.32498498 108.280149,7.18792818 108.338279,7.05086932 C108.396408,6.91381046 108.473913,6.79633321 108.570796,6.69843402 C108.725808,6.60053484 108.900194,6.54179621 109.09396,6.52221637 C109.287725,6.50263653 109.52024,6.49284676 109.791511,6.49284676 C109.927147,6.49284676 110.053092,6.49774165 110.169352,6.50753157 C110.285611,6.51732149 110.39218,6.54179591 110.489063,6.58095559 C110.663452,6.65927494 110.755489,6.78654197 110.765177,6.9627605 C110.774865,7.13897903 110.740957,7.31519492 110.663451,7.49141345 C110.547192,7.82427067 110.430934,8.16691268 110.314675,8.51934974 C110.198416,8.87178681 110.062782,9.21442881 109.90777,9.54728604 C109.869017,9.64518522 109.839952,9.73818805 109.820576,9.82629732 C109.801199,9.91440658 109.772135,10.0074094 109.733382,10.1053086 C109.57837,10.4381658 109.452424,10.7808078 109.355541,11.1332449 C109.258659,11.485682 109.132713,11.8381137 108.977701,12.1905508 C108.880818,12.4450887 108.788781,12.7045176 108.701587,12.9688454 C108.614392,13.2331732 108.512667,13.4926022 108.396408,13.74714 C108.067007,14.5499133 107.771519,15.3624644 107.509936,16.1848175 C107.248353,17.0071707 106.952865,17.8197217 106.623464,18.622495 C106.507205,18.9357724 106.400636,19.2490451 106.303753,19.5623225 C106.20687,19.8755999 106.090613,20.1888726 105.954977,20.50215 C105.858094,20.7175282 105.775745,20.9182185 105.707928,21.1042269 C105.64011,21.2902354 105.499632,21.4321871 105.28649,21.5300863 C105.170231,21.5888258 105.039441,21.6181951 104.894117,21.6181951 L104.443615,21.6181951 C104.133591,21.6181951 103.833259,21.6133002 103.542611,21.6035103 C103.251963,21.5937204 103.038824,21.5007175 102.903189,21.324499 C102.767553,21.1678603 102.670672,20.9769598 102.612542,20.7517916 C102.554412,20.5266235 102.476908,20.3063537 102.380025,20.0909755 C102.263766,19.8168577 102.152352,19.5280595 102.045781,19.224572 C101.93921,18.9210845 101.837485,18.6322863 101.740603,18.3581686 C101.701849,18.2602694 101.672785,18.1770563 101.653409,18.1085269 C101.634032,18.0399975 101.604968,17.9567844 101.566215,17.8588852 C101.178684,16.919053 100.825068,15.9694452 100.505355,15.0100332 C100.185642,14.0506212 99.8320256,13.1010134 99.444495,12.1611812 C99.3282358,11.8479038 99.2168224,11.539526 99.1102515,11.2360385 C99.0036806,10.932551 98.8922672,10.6241732 98.776008,10.3108959 C98.7372549,10.2129967 98.7033465,10.1102041 98.6742817,10.002515 C98.6452169,9.89482586 98.6113085,9.79203326 98.5725554,9.69413408 C98.4175432,9.36127685 98.2867536,9.02842462 98.1801826,8.69556739 C98.0736117,8.36271017 97.9525102,8.02985793 97.8168745,7.69700071 C97.7781214,7.57952169 97.7296808,7.42288534 97.6715512,7.22708697 C97.6134216,7.0312886 97.6231098,6.86486249 97.7006159,6.72780363 C97.7974985,6.62990445 97.913756,6.56137604 98.0493917,6.52221637 C98.1850274,6.52221637 98.2625324,6.5124266 98.2819089,6.49284676 L98.2819089,6.49284676 L98.2819089,6.49284676 Z M127.00986,13.453444 C127.048613,13.6492423 127.053457,13.8695122 127.024392,14.1142601 C126.995328,14.3590081 126.932355,14.5303291 126.835472,14.6282283 C126.73859,14.7065476 126.598112,14.7603914 126.414035,14.7897611 C126.229958,14.8191309 126.021663,14.8338155 125.789145,14.8338155 C125.556626,14.8338155 125.324111,14.8289207 125.091593,14.8191307 C124.859075,14.8093408 124.655624,14.8044459 124.481235,14.8044459 L117.040684,14.8044459 C116.885672,14.8044459 116.730662,14.8093408 116.57565,14.8191307 C116.420638,14.8289207 116.294692,14.8631849 116.19781,14.9219244 C116.120303,14.961084 116.042798,15.0394022 115.965292,15.1568812 C115.926539,15.2156208 115.887787,15.2988338 115.849034,15.4065229 C115.810281,15.514212 115.810281,15.6170046 115.849034,15.7149038 C115.86841,15.812803 115.878098,15.9009109 115.878098,15.9792303 C115.878098,16.0575496 115.887786,16.1358678 115.907163,16.2141871 C115.945916,16.3708258 115.984669,16.5323571 116.023422,16.6987857 C116.062175,16.8652143 116.120303,17.0267455 116.19781,17.1833842 C116.64347,18.2406954 117.379767,18.9945078 118.406723,19.4448441 C118.522982,19.5035836 118.648928,19.5525324 118.784564,19.5916921 C118.920199,19.6308518 119.055833,19.6700109 119.191469,19.7091705 C119.249598,19.7287504 119.34648,19.7385402 119.482115,19.7385402 C119.753387,19.8168595 120.111847,19.8560186 120.557507,19.8560186 C121.003168,19.8560186 121.361628,19.8168595 121.632899,19.7385402 C121.904171,19.6602208 122.151218,19.5770077 122.374048,19.4888985 C122.596878,19.4007892 122.805173,19.2882068 122.998938,19.151148 C123.21208,19.0140891 123.396154,18.8525579 123.551167,18.6665494 C123.706179,18.480541 123.841812,18.2798507 123.958072,18.0644725 C124.074331,17.8686741 124.176056,17.6630889 124.263251,17.4477107 C124.350445,17.2323325 124.500611,17.0756961 124.713753,16.977797 C124.791259,16.9386373 124.917204,16.909268 125.091593,16.8896881 C125.265982,16.8701083 125.440368,16.8652134 125.614757,16.8750033 C125.789146,16.8847933 125.953844,16.8994779 126.108856,16.9190577 C126.263868,16.9386376 126.370437,16.9777967 126.428567,17.0365362 C126.622332,17.173595 126.670773,17.3987598 126.57389,17.7120372 C126.418878,18.2406928 126.215428,18.7106018 125.963533,19.1217784 C125.576002,19.7483332 125.135193,20.2622962 124.641091,20.6636828 C124.146989,21.0650695 123.522106,21.3930268 122.766421,21.6475647 C122.572656,21.725884 122.378893,21.7797278 122.185128,21.8090975 C121.991363,21.8384673 121.787912,21.8727315 121.57477,21.9118912 C121.477888,21.931471 121.38585,21.9412608 121.298656,21.9412608 C121.211462,21.9412608 121.119424,21.9510506 121.022542,21.9706304 L120.731895,21.9706304 C120.635013,21.9902102 120.523599,22 120.397652,22 C120.271704,22 120.169979,21.9902102 120.092473,21.9706304 L119.830891,21.9706304 C119.734008,21.9510506 119.646815,21.9412608 119.569309,21.9412608 C119.491803,21.9412608 119.414298,21.931471 119.336792,21.9118912 C119.239909,21.8923113 119.13334,21.8776267 119.017081,21.8678368 C118.900822,21.8580468 118.794252,21.8433622 118.69737,21.8237823 C118.522981,21.7846227 118.348595,21.7405687 118.174206,21.6916191 C117.999817,21.6426695 117.835119,21.5888258 117.680107,21.5300863 C117.602601,21.4909266 117.534784,21.4664522 117.476654,21.4566622 C117.418525,21.4468723 117.350708,21.4223979 117.273202,21.3832382 C116.982554,21.2461794 116.672534,21.0797532 116.343133,20.8839549 C115.781213,20.511938 115.301651,20.0567136 114.904433,19.5182681 C114.507214,18.9798226 114.172973,18.3777516 113.901702,17.7120372 C113.804819,17.496659 113.732158,17.2714942 113.683717,17.0365362 C113.635276,16.8015781 113.572303,16.5666236 113.494797,16.3316656 C113.47542,16.2533462 113.465732,16.1848178 113.465732,16.1260783 C113.465732,16.0673388 113.456044,15.9890206 113.436668,15.8911215 C113.397915,15.7344828 113.36885,15.5680566 113.349474,15.3918381 C113.330097,15.2156196 113.301033,15.0394037 113.26228,14.8631852 L113.26228,14.4520106 C113.242903,14.3736913 113.228371,14.2611089 113.218683,14.1142601 C113.208994,13.9674114 113.213838,13.8450392 113.233215,13.74714 L113.233215,13.4240743 C113.271968,13.3261752 113.2865,13.2233826 113.276812,13.1156935 C113.267124,13.0080044 113.271968,12.9052118 113.291344,12.8073126 C113.36885,12.4940352 113.431823,12.1807625 113.480265,11.8674851 C113.528706,11.5542077 113.611055,11.2605146 113.727314,10.9863968 C113.824197,10.7710186 113.916234,10.5507488 114.003428,10.3255807 C114.090623,10.1004125 114.192348,9.88014268 114.308607,9.66476447 C114.734891,8.97947018 115.219297,8.387189 115.76184,7.88790316 C116.304383,7.38861732 116.972863,6.97255203 117.767301,6.6396948 C117.999819,6.54179562 118.237178,6.46837233 118.479385,6.41942274 C118.721591,6.37047315 118.978327,6.31662941 119.249598,6.2578899 C119.346481,6.23831006 119.433674,6.2236254 119.51118,6.21383548 C119.588686,6.20404556 119.675879,6.19915068 119.772762,6.19915068 C119.811515,6.17957084 119.859955,6.17957084 119.918085,6.19915068 C119.976215,6.21873052 120.024655,6.20894074 120.063408,6.16978107 C120.877223,6.15020123 121.584455,6.23341429 122.185128,6.41942274 C122.7858,6.60543119 123.328335,6.85507037 123.812748,7.16834776 C123.909631,7.20750743 123.987136,7.26135117 124.045266,7.3298806 C124.103395,7.39841003 124.171212,7.45225377 124.248718,7.49141345 C124.40373,7.60889247 124.563584,7.74594927 124.728285,7.90258797 C124.892985,8.05922666 125.033463,8.21586301 125.149722,8.3725017 C125.459747,8.78367827 125.721326,9.17526914 125.934468,9.54728604 C126.070104,9.76266424 126.176673,9.99761876 126.254179,10.2521566 C126.331685,10.5066945 126.418878,10.7612286 126.515761,11.0157665 C126.612644,11.2703043 126.685305,11.5346282 126.733746,11.8087459 C126.782187,12.0828636 126.84516,12.3569772 126.922666,12.6310949 C126.942043,12.7681538 126.956575,12.9052106 126.966263,13.0422694 C126.975951,13.1793283 126.990484,13.3163851 127.00986,13.453444 L127.00986,13.453444 L127.00986,13.453444 Z M124.190589,12.4548773 C124.248718,12.3765579 124.297159,12.2737653 124.335912,12.1464964 C124.374665,12.0192274 124.374665,11.8870655 124.335912,11.7500067 C124.219653,11.3192503 124.054955,10.9178696 123.841813,10.5458527 C123.570542,10.0955165 123.27021,9.71371538 122.940809,9.40043799 C122.611408,9.08716061 122.18513,8.82283677 121.661964,8.60745857 C121.526328,8.56829889 121.390695,8.53403469 121.255059,8.50466494 C121.119423,8.47529518 120.974101,8.44103098 120.819089,8.40187131 C120.664077,8.36271164 120.499379,8.34313209 120.32499,8.34313209 L119.830891,8.34313209 C119.772761,8.38229177 119.704945,8.39697642 119.627438,8.3871865 C119.549932,8.37739659 119.482116,8.38229147 119.423986,8.40187131 C119.268974,8.44103098 119.118808,8.47529518 118.973484,8.50466494 C118.82816,8.53403469 118.687682,8.56829889 118.552046,8.60745857 C117.990127,8.84241661 117.539629,9.13610976 117.20054,9.48854682 C116.861451,9.84098388 116.556275,10.2815236 116.285003,10.8101792 C116.226874,10.9080784 116.168745,11.0304505 116.110616,11.1772993 C116.052486,11.3241481 116.004045,11.4856793 115.965292,11.6618978 C115.926539,11.8381164 115.916851,12.0045425 115.936228,12.1611812 C115.955604,12.3178199 116.023421,12.4352971 116.13968,12.5136165 C116.294692,12.6310955 116.561116,12.6849393 116.938958,12.6751493 C117.316801,12.6653594 117.641353,12.6604645 117.912624,12.6604645 L122.330451,12.6604645 C122.621099,12.6604645 122.969871,12.6653594 123.376779,12.6751493 C123.783686,12.6849393 124.054953,12.611516 124.190589,12.4548773 L124.190589,12.4548773 L124.190589,12.4548773 Z M137.368951,6.19915068 C138.589673,6.15999101 139.568173,6.32641712 140.304481,6.69843402 C141.040789,7.07045092 141.631765,7.6284679 142.077425,8.3725017 C142.193684,8.56830007 142.285721,8.77878016 142.353539,9.00394828 C142.421357,9.2291164 142.48433,9.45917604 142.542459,9.69413408 C142.639342,10.066151 142.697471,10.4675316 142.716847,10.898288 C142.736224,11.3290444 142.745912,11.7695842 142.745912,12.2199204 L142.745912,15.3624685 L142.745912,19.9441274 C142.745912,20.2769846 142.741068,20.6098369 142.73138,20.9426941 C142.721691,21.2755513 142.590902,21.4909263 142.339007,21.5888255 C142.242124,21.6279852 142.140399,21.6524596 142.033828,21.6622495 C141.927257,21.6720394 141.815844,21.6769343 141.699584,21.6769343 C141.447689,21.6769343 141.205486,21.6720394 140.972968,21.6622495 C140.74045,21.6524596 140.575752,21.5692465 140.478869,21.4126078 C140.381986,21.275549 140.333546,21.0993331 140.333546,20.8839549 L140.333546,20.2378235 L140.333546,17.7120372 L140.333546,12.924791 C140.333546,12.3961354 140.323858,11.8723826 140.304481,11.353517 C140.285105,10.8346513 140.197911,10.3892167 140.042899,10.0171998 C139.887887,9.62560303 139.655372,9.30743546 139.345348,9.0626875 C139.035323,8.81793954 138.676863,8.62703899 138.269955,8.48998013 C138.153696,8.45082046 138.032595,8.42634603 137.906647,8.41655611 C137.7807,8.40676619 137.659598,8.38229177 137.543339,8.34313209 C137.446456,8.32355226 137.296291,8.31865737 137.092837,8.32844729 C136.889383,8.33823721 136.748906,8.35292186 136.6714,8.3725017 C136.593893,8.41166137 136.526077,8.42634603 136.467947,8.41655611 C136.409817,8.40676619 136.342001,8.41166108 136.264494,8.43124092 C136.012599,8.48998043 135.775241,8.55361394 135.55241,8.62214337 C135.32958,8.6906728 135.121286,8.78367563 134.92752,8.90115465 C134.850014,8.94031433 134.782197,8.97947341 134.724068,9.01863309 C134.665938,9.05779276 134.598121,9.09695185 134.520615,9.13611152 C133.842437,9.62560744 133.348343,10.3598403 133.038318,11.3388321 C132.980188,11.4954708 132.941436,11.6570021 132.922059,11.8234307 C132.902683,11.9898593 132.873619,12.1513905 132.834865,12.3080292 C132.796112,12.4059284 132.786424,12.4989312 132.805801,12.5870405 C132.825177,12.6751498 132.815489,12.7583628 132.776736,12.8366822 L132.776736,13.453444 C132.75736,13.5121835 132.752516,13.5807119 132.762204,13.6590312 C132.771892,13.7373506 132.776736,13.8254585 132.776736,13.9233577 L132.776736,14.8044459 L132.776736,17.6239283 L132.776736,20.2084539 L132.776736,20.8692701 C132.776736,21.0944382 132.728296,21.275549 132.631413,21.4126078 C132.53453,21.5692465 132.364988,21.6524596 132.122781,21.6622495 C131.880575,21.6720394 131.633528,21.6769343 131.381633,21.6769343 C131.226621,21.6769343 131.081299,21.6671445 130.945663,21.6475647 C130.810027,21.6279849 130.69377,21.579036 130.596887,21.5007167 C130.441875,21.4028175 130.36437,21.2168118 130.36437,20.9426941 L130.36437,20.1497147 L130.36437,16.6841009 L130.36437,9.57665565 L130.36437,7.78510953 L130.36437,7.25645658 C130.36437,7.08023805 130.403122,6.94318125 130.480629,6.84528206 C130.538758,6.72780304 130.635639,6.64948487 130.771275,6.6103252 C130.848781,6.59074536 130.960195,6.57116582 131.105519,6.55158598 C131.250843,6.53200614 131.401009,6.52221637 131.556021,6.52221637 C131.711033,6.52221637 131.861199,6.53200614 132.006523,6.55158598 C132.151847,6.57116582 132.253572,6.60053513 132.311702,6.6396948 C132.524844,6.77675366 132.621725,6.94807467 132.602348,7.15366295 C132.582972,7.35925124 132.612036,7.58931087 132.689542,7.84384875 C132.728295,7.96132777 132.8058,8.05922549 132.922059,8.13754483 C133.154578,8.15712467 133.343496,8.06901673 133.48882,7.87321836 C133.634144,7.67741999 133.78431,7.52078364 133.939322,7.40330462 C134.210594,7.20750625 134.486705,7.02639548 134.767665,6.85996687 C135.048625,6.69353825 135.373177,6.55158657 135.741331,6.43410755 C135.896343,6.37536804 136.065885,6.33620895 136.249962,6.31662911 C136.434039,6.29704928 136.613269,6.26767996 136.787658,6.22852029 C136.884541,6.20894045 136.981422,6.19915068 137.078305,6.19915068 L137.368951,6.19915068 L137.368951,6.19915068 L137.368951,6.19915068 Z M148.890628,1.91118785 C149.181276,1.91118785 149.47192,1.91608274 149.762568,1.92587266 C150.053216,1.93566257 150.256666,2.01887563 150.372926,2.17551433 C150.469808,2.29299335 150.523093,2.45452458 150.532781,2.66011287 C150.542469,2.86570115 150.547313,3.07618124 150.547313,3.29155945 L150.547313,4.99499673 C150.547313,5.15163543 150.542469,5.31316666 150.532781,5.47959527 C150.523093,5.64602389 150.537625,5.78797557 150.576378,5.90545459 C150.653884,6.17957231 150.82827,6.3557882 151.099542,6.43410755 C151.196425,6.45368738 151.288462,6.46347715 151.375656,6.46347715 L151.65177,6.46347715 C151.864912,6.46347715 152.126491,6.45858227 152.436516,6.44879235 C152.74654,6.43900243 152.969367,6.46347686 153.105003,6.52221637 C153.279392,6.63969539 153.395649,6.75717265 153.453779,6.87465167 C153.492532,6.95297102 153.511908,7.04107896 153.511908,7.13897815 L153.511908,7.43267423 C153.511908,7.64805244 153.50222,7.84874275 153.482843,8.0347512 C153.463467,8.22075965 153.39565,8.36271134 153.279391,8.46061053 C153.163132,8.55850971 153.003278,8.61235345 152.799824,8.62214337 C152.59637,8.63193329 152.383232,8.63193329 152.160402,8.62214337 C151.937572,8.61235345 151.719589,8.60745857 151.506447,8.60745857 C151.293305,8.60745857 151.109231,8.63682788 150.954219,8.69556739 C150.818583,8.7543069 150.721702,8.85220462 150.663572,8.98926348 C150.605443,9.12632233 150.56669,9.28785357 150.547313,9.47386202 C150.527937,9.65987047 150.523093,9.8556659 150.532781,10.0612542 C150.542469,10.2668425 150.547313,10.4675328 150.547313,10.6633312 L150.547313,16.4785136 C150.547313,16.90927 150.542469,17.3644944 150.532781,17.8442004 C150.523093,18.3239064 150.605442,18.6910228 150.779831,18.9455607 C150.876713,19.1021994 151.002659,19.2098869 151.157671,19.2686264 C151.312683,19.3273659 151.496758,19.3763148 151.7099,19.4154745 C151.768029,19.4350543 151.831002,19.4399492 151.89882,19.4301593 C151.966638,19.4203693 152.02961,19.4252642 152.08774,19.4448441 L152.465581,19.4448441 C152.659346,19.4448441 152.838576,19.4595287 153.003277,19.4888985 C153.167977,19.5182682 153.289079,19.5916915 153.366585,19.7091705 C153.405338,19.7679101 153.439246,19.8707027 153.468311,20.0175514 C153.497376,20.1644002 153.516752,20.3161417 153.52644,20.4727804 C153.536129,20.6294191 153.531285,20.7811605 153.511908,20.9280093 C153.492531,21.0748581 153.453779,21.1874404 153.395649,21.2657598 C153.318143,21.4028186 153.172821,21.5007164 152.95968,21.5594559 C152.804667,21.5986155 152.630281,21.6133002 152.436516,21.6035103 C152.242751,21.5937204 152.068364,21.5888255 151.913352,21.5888255 C151.797093,21.5888255 151.680836,21.5937204 151.564576,21.6035103 C151.448317,21.6133002 151.341748,21.6084053 151.244865,21.5888255 L150.896089,21.5888255 C150.799207,21.5692456 150.70717,21.554561 150.619975,21.5447711 C150.532781,21.5349812 150.440744,21.5300863 150.343861,21.5300863 C149.95633,21.4321871 149.62209,21.3244996 149.34113,21.2070206 C149.060171,21.0895416 148.822812,20.8839563 148.629046,20.5902588 C148.357775,20.1986621 148.202765,19.7042786 148.164012,19.1070936 C148.125259,18.5099085 148.105883,17.8686785 148.105883,17.1833842 L148.105883,9.48854682 C148.047753,9.23400894 147.994468,9.04800328 147.946027,8.93052426 C147.897586,8.81304524 147.757108,8.71514752 147.52459,8.63682818 C147.447084,8.61724834 147.369579,8.61724834 147.292072,8.63682818 C147.214566,8.65640801 147.137061,8.64661824 147.059555,8.60745857 L146.594521,8.60745857 C146.342626,8.60745857 146.134331,8.58298414 145.969631,8.53403455 C145.80493,8.48508495 145.693517,8.37250258 145.635387,8.19628405 C145.596634,8.1179647 145.572414,8.02985676 145.562726,7.93195757 C145.553037,7.83405839 145.548193,7.73616067 145.548193,7.63826149 C145.548193,7.36414377 145.56757,7.13408414 145.606323,6.94807569 C145.645076,6.76206724 145.761333,6.62011556 145.955098,6.52221637 C146.16824,6.44389702 146.444352,6.42431748 146.783441,6.46347715 C147.12253,6.50263683 147.40833,6.48305728 147.640848,6.40473794 C147.815237,6.30683875 147.950871,6.16978195 148.047753,5.99356342 C148.086506,5.8760844 148.105883,5.72923783 148.105883,5.55301929 L148.105883,5.05373595 L148.105883,3.23282023 L148.105883,2.74822169 C148.105883,2.58179308 148.125259,2.43984139 148.164012,2.32236237 C148.241518,2.16572367 148.38684,2.03845664 148.599982,1.94055746 C148.658111,1.94055746 148.711396,1.93566257 148.759837,1.92587266 C148.808279,1.91608274 148.851875,1.91118785 148.890628,1.91118785 L148.890628,1.91118785 L148.890628,1.91118785 Z M161.603956,6.14041146 C162.999066,6.12083163 164.171329,6.28236286 165.120779,6.62501 C166.070229,6.96765715 166.806526,7.5697281 167.329693,8.43124092 C167.465328,8.64661912 167.571898,8.86688898 167.649404,9.09205711 C167.72691,9.31722523 167.804415,9.56686441 167.881921,9.84098212 C167.920674,9.97804098 167.930362,10.1199927 167.910986,10.2668414 C167.891609,10.4136902 167.862545,10.5262726 167.823792,10.6045919 C167.785039,10.6437516 167.736598,10.6780158 167.678468,10.7073856 C167.620339,10.7367553 167.571898,10.7710195 167.533145,10.8101792 C167.436263,10.8493389 167.339381,10.8591286 167.242499,10.8395488 C167.145616,10.819969 167.048735,10.819969 166.951852,10.8395488 C166.79684,10.8787085 166.593389,10.8836034 166.341494,10.8542336 C166.0896,10.8248639 165.915213,10.7808099 165.818331,10.7220704 C165.663319,10.6241712 165.561593,10.4920093 165.513152,10.3255807 C165.464711,10.159152 165.39205,9.99762082 165.295167,9.84098212 C165.120778,9.52770473 164.878575,9.24380136 164.568551,8.98926348 C164.355409,8.83262478 164.122894,8.71514752 163.870999,8.63682818 C163.619104,8.55850883 163.347837,8.48019066 163.057189,8.40187131 C162.960306,8.36271164 162.863425,8.34802698 162.766542,8.3578169 C162.66966,8.36760681 162.572778,8.36271193 162.475896,8.34313209 C162.359637,8.30397242 162.214315,8.28439288 162.039926,8.28439288 C161.865537,8.28439288 161.720215,8.30397242 161.603956,8.34313209 L161.429568,8.34313209 C161.332686,8.36271193 161.235804,8.37739659 161.138922,8.3871865 C161.042039,8.39697642 160.945158,8.41166108 160.848275,8.43124092 C160.344485,8.54871994 159.927896,8.71514606 159.598495,8.93052426 C159.269094,9.14590247 159.046267,9.50812401 158.930008,10.0171998 C158.891255,10.1542586 158.886411,10.2913154 158.915476,10.4283743 C158.944541,10.5654331 158.978449,10.6829104 159.017202,10.7808096 C159.133461,11.0745071 159.273939,11.2849872 159.43864,11.4122562 C159.60334,11.5395251 159.811635,11.6814768 160.06353,11.8381155 C160.373554,12.0339139 160.722326,12.1758655 161.109857,12.2639748 C161.497388,12.3520841 161.884913,12.4548767 162.272443,12.5723557 C162.524338,12.650675 162.776229,12.7094137 163.028124,12.7485734 C163.280019,12.787733 163.53191,12.8464717 163.783805,12.924791 C164.190712,13.04227 164.587925,13.1548524 164.975456,13.2625415 C165.362986,13.3702306 165.750511,13.5023925 166.138042,13.6590312 C166.234925,13.6981909 166.331806,13.73735 166.428688,13.7765096 C166.525571,13.8156693 166.622452,13.8646182 166.719335,13.9233577 C167.106866,14.1583157 167.44595,14.4226396 167.736598,14.7163371 C168.027246,15.0100347 168.269449,15.382046 168.463214,15.8323822 C168.501967,15.9694411 168.54072,16.1554468 168.579473,16.3904048 C168.618226,16.5274637 168.642446,16.6694153 168.652134,16.8162641 C168.661823,16.9631129 168.666667,17.1246441 168.666667,17.3008627 L168.666667,17.5945587 C168.627914,17.7316176 168.608537,17.8686744 168.608537,18.0057333 C168.608537,18.1427921 168.589161,18.2798489 168.550408,18.4169078 C168.492278,18.632286 168.424462,18.8378712 168.346955,19.0336696 C168.269449,19.2294679 168.182256,19.4056838 168.085374,19.5623225 C167.775349,20.0713983 167.378136,20.4776738 166.893723,20.7811613 C166.40931,21.0846487 165.866775,21.3440777 165.266102,21.5594559 C165.091714,21.6181954 164.912483,21.6622494 164.728406,21.6916191 C164.544329,21.7209889 164.365099,21.7650428 164.19071,21.8237823 C163.996945,21.862942 163.803183,21.8825216 163.609417,21.8825216 C163.415652,21.8825216 163.221889,21.9021011 163.028124,21.9412608 L162.737478,21.9412608 C162.640595,21.9608406 162.504961,21.9706304 162.330572,21.9706304 C162.156184,21.9706304 162.02055,21.9608406 161.923667,21.9412608 L161.603956,21.9412608 C161.487697,21.9021011 161.361751,21.8874165 161.226116,21.8972064 C161.09048,21.9069963 160.974223,21.8923116 160.87734,21.853152 C160.780457,21.8335721 160.654512,21.8237823 160.499499,21.8237823 C160.344487,21.7846227 160.194321,21.7503585 160.048997,21.7209887 C159.903673,21.691619 159.753507,21.647565 159.598495,21.5888255 C158.997823,21.3930271 158.474664,21.1482828 158.029004,20.8545853 C157.583344,20.5608877 157.195819,20.1790866 156.866418,19.7091705 C156.692029,19.4546327 156.546707,19.1903088 156.430448,18.9161911 C156.314189,18.6420734 156.20762,18.3385905 156.110737,18.0057333 C156.071984,17.8882542 156.057452,17.7463025 156.06714,17.5798739 C156.076828,17.4134453 156.101049,17.2812834 156.139802,17.1833842 C156.197931,17.1050649 156.294812,17.0267467 156.430448,16.9484274 C156.527331,16.9092677 156.662964,16.8847933 156.837353,16.8750033 C157.011742,16.8652134 157.186128,16.8701083 157.360517,16.8896881 C157.534906,16.909268 157.704448,16.9337424 157.869148,16.9631122 C158.033849,16.9924819 158.145262,17.0267461 158.203392,17.0659058 C158.339028,17.163805 158.431065,17.3057567 158.479506,17.4917651 C158.527947,17.6777736 158.59092,17.8490946 158.668426,18.0057333 C158.862192,18.4364897 159.123771,18.7693419 159.453172,19.0042999 C159.68569,19.1805185 159.94727,19.3175753 160.237918,19.4154745 C160.528566,19.5133736 160.838585,19.6112714 161.167986,19.7091705 L161.778344,19.7972794 L161.952732,19.7972794 C162.088368,19.836439 162.267598,19.8560186 162.490428,19.8560186 C162.713258,19.8560186 162.902177,19.836439 163.057189,19.7972794 C163.192825,19.7972794 163.299394,19.7874896 163.3769,19.7679098 C163.493159,19.7483299 163.609417,19.7336453 163.725676,19.7238553 C163.841935,19.7140654 163.948504,19.6993808 164.045387,19.6798009 C164.607306,19.5231622 165.05296,19.317577 165.382361,19.0630392 C165.711762,18.8085013 165.944277,18.3777513 166.079913,17.7707764 C166.118666,17.6728772 166.128354,17.5651897 166.108977,17.4477107 C166.089601,17.3302317 166.070225,17.2421237 166.050848,17.1833842 C165.953965,16.8113673 165.818332,16.5323588 165.643943,16.3463504 C165.469554,16.1603419 165.246727,15.9890209 164.975456,15.8323822 C164.801067,15.7149032 164.607305,15.6170055 164.394163,15.5386862 C164.181021,15.4603668 163.967882,15.3820486 163.75474,15.3037293 C163.696611,15.2841494 163.643326,15.2743597 163.594885,15.2743597 C163.546444,15.2743597 163.493159,15.2547801 163.435029,15.2156205 C162.776227,15.0002423 162.093215,14.838711 161.385971,14.7310219 C160.678728,14.6233328 160.015092,14.442222 159.395043,14.1876842 C159.201277,14.1093648 159.017203,14.0408364 158.842814,13.9820969 C158.668425,13.9233574 158.503727,13.8450392 158.348715,13.74714 C157.980561,13.5317618 157.641477,13.2870175 157.331452,13.0128998 C157.021428,12.7387821 156.779225,12.3961401 156.604836,11.9849635 C156.546706,11.8479047 156.50311,11.7108479 156.474045,11.573789 C156.44498,11.4367302 156.411072,11.2898836 156.372319,11.1332449 C156.314189,10.8982868 156.294813,10.6290681 156.31419,10.3255807 C156.333566,10.0220932 156.36263,9.76266424 156.401383,9.54728604 C156.440137,9.44938685 156.464357,9.36617379 156.474045,9.29764437 C156.483733,9.22911494 156.507954,9.15569165 156.546707,9.0773723 C156.721096,8.62703606 156.958454,8.23544519 157.258791,7.90258797 C157.559127,7.56973074 157.903055,7.27603759 158.290586,7.02149971 C158.581234,6.84528118 158.900942,6.70332949 159.249719,6.59564039 C159.598497,6.48795129 159.966646,6.38515869 160.354176,6.2872595 C160.489812,6.26767967 160.620602,6.24810012 160.746549,6.22852029 C160.872496,6.20894045 161.012974,6.18936091 161.167986,6.16978107 C161.226116,6.15020123 161.303621,6.15020123 161.400504,6.16978107 C161.497386,6.18936091 161.565203,6.17957114 161.603956,6.14041146 L161.603956,6.14041146 L161.603956,6.14041146 Z" id="make.events"></path>
                </g>
            </g>
        </g>
    </g>
</svg>