<?xml version="1.0" encoding="UTF-8" standalone="no"?>
<svg width="37px" height="16px" viewBox="0 0 37 16" version="1.1" xmlns="http://www.w3.org/2000/svg" xmlns:xlink="http://www.w3.org/1999/xlink">
    <!-- Generator: sketchtool 40 (33762) - http://www.bohemiancoding.com/sketch -->
    <title>82DAAFEC-A6E2-4A30-88ED-ED2F31B2E644</title>
    <desc>Created with sketchtool.</desc>
    <defs></defs>
    <g id="Пересборка" stroke="none" stroke-width="1" fill="none" fill-rule="evenodd" opacity="0.5">
        <g id="Дашборд-(пустой)" transform="translate(-82.000000, -1327.000000)" fill="#434343">
            <g id="#footer" transform="translate(0.000000, 1066.000000)">
                <g id="Group" transform="translate(82.000000, 261.000000)">
                    <g id="Group-3-Copy">
                        <path d="M36.2555032,14.4338586 C36.3642901,14.5577368 36.4409305,14.6805279 36.4917643,14.8010444 C36.5356874,14.9071711 36.5634905,15.0116338 36.570518,15.1295791 C36.5798691,15.3374008 36.5178532,15.5514303 36.3539454,15.7286717 C36.190078,15.9063113 35.9791531,15.9878583 35.7632926,15.9992296 C35.6472363,16.0038828 35.5385824,15.987015 35.4285893,15.9605785 C35.2994332,15.9168064 35.1673602,15.8540642 35.0151324,15.7673228 L19.4415871,6.51037596 C19.0487768,6.26870024 18.9457019,5.74623607 19.2250144,5.38949304 L22.7098659,0.828659105 C23.5489745,-0.276184914 25.0258424,-0.276254489 25.8600141,0.828659105 L36.2555032,14.4338586 L36.2555032,14.4338586 Z M25.2299845,1.29247273 C24.7104722,0.599832232 23.8638767,0.599928918 23.3398956,1.29247273 L19.9732389,5.69861806 C19.9079617,5.78405021 19.9305975,5.89821574 20.0233198,5.9533301 L35.4285893,15.1102535 C35.8046548,15.3289388 35.8946993,15.2314719 35.6254736,14.8976723 L25.2299845,1.29247273 L25.2299845,1.29247273 Z" id="Combined-Shape"></path>
                        <path d="M22.8564605,15.4652413 C22.9895717,15.54975 23.1204513,15.6110398 23.2471245,15.6538361 C23.3574394,15.6796233 23.4651115,15.6961005 23.5791889,15.6915551 C23.794029,15.680447 24.0030479,15.6007876 24.1651849,15.4275224 C24.3278612,15.2541213 24.3893167,15.0450461 24.3800501,14.8428785 C24.3730861,14.72682 24.3455343,14.6247753 24.3019173,14.5222673 C24.2516336,14.4033784 24.1756857,14.2834297 24.0675189,14.1639372 L21.4500701,10.7692308 L20.7859413,11.1652799 L23.4424565,14.6165647 C23.7099352,14.9414435 23.6207092,15.036653 23.2471245,14.824019 L18.8912209,12.2591297 L18.1294261,12.6928977 L22.8564605,15.4652413 Z" id="Path"></path>
                        <path d="M12.2334263,14.4031211 C12.1244761,14.5269342 12.0084206,14.6701686 11.957614,14.7924144 C11.9136472,14.8985911 11.8858393,15.0038741 11.8788105,15.1233137 C11.8694578,15.3321986 11.9314846,15.5479085 12.0955202,15.7267182 C12.2593167,15.9055757 12.4702782,15.9877629 12.6865464,15.9992235 C12.8022527,16.0039132 12.9109255,15.9869131 13.0214612,15.9602942 C13.1501162,15.9161532 13.2822122,15.8529184 13.4351796,15.7656476 L23.4432234,9.80946057 L22.6157867,9.30337932 L13.0214612,15.103849 C12.6452088,15.3235391 12.5551536,15.2253083 12.8244525,14.8897377 L18.7150137,7.10387235 L18.2224919,6.46153846 L12.2334263,14.4031211 L12.2334263,14.4031211 Z" id="Path"></path>
                        <path d="M6.4365879,6.46153846 L0.317748817,14.4353578 L0.317748817,14.4353578 C0.208320836,14.559225 0.131243002,14.6818894 0.0801239979,14.8021921 C0.0359451326,14.9082987 0.00798334234,15.0126537 0.000915725057,15.1304123 C-0.00848872605,15.3380845 0.0538811991,15.5518931 0.218738475,15.7289314 C0.38352733,15.906408 0.595656189,15.9878708 0.812800522,15.9992304 C0.929467571,16.0038788 1.03874167,15.9870284 1.14943568,15.9606163 C1.27925593,15.9168922 1.41208284,15.8542148 1.56527911,15.7675456 L11.5653236,9.85958256 C11.3492396,9.73513413 11.082101,9.58411496 10.7930429,9.41551998 L1.14943568,15.1111052 C0.771554741,15.3295013 0.681001209,15.2321363 0.951415,14.8987275 L6.95144167,7.07936466 C6.80033296,6.97473509 6.69772836,6.8870262 6.65441065,6.82837277 C6.57515483,6.71446509 6.50267395,6.58799037 6.4365879,6.46153846 L6.4365879,6.46153846 L6.4365879,6.46153846 Z" id="Path"></path>
                        <path d="M7.34834731,5.30732888 L10.8610073,0.816008862 C11.7047422,-0.2719687 13.1927132,-0.272037207 14.0362932,0.816008862 L18.4420024,6.4491899 L17.945864,7.07721347 L13.4012361,1.27275327 C12.8751742,0.590688886 12.0222603,0.590784088 11.4960645,1.27275327 L8.10254246,5.61174237 C8.03674438,5.69587241 8.05946652,5.80829689 8.15305389,5.86270998 L15.5445541,10.1602382 L15.0682612,10.7692308 L7.56664822,6.41112787 C7.17071198,6.17251768 7.06686214,5.65806813 7.34834731,5.30732888 Z" id="Path"></path>
                    </g>
                </g>
            </g>
        </g>
    </g>
</svg>