<?xml version="1.0" encoding="UTF-8" standalone="no"?>
<svg width="16px" height="16px" viewBox="0 0 16 16" version="1.1" xmlns="http://www.w3.org/2000/svg" xmlns:xlink="http://www.w3.org/1999/xlink">
    <!-- Generator: sketchtool 40 (33762) - http://www.bohemiancoding.com/sketch -->
    <title>EC7BC5DE-7380-4C7F-B3EA-C5A13B480ED4</title>
    <desc>Created with sketchtool.</desc>
    <defs></defs>
    <g id="Пересборка" stroke="none" stroke-width="1" fill="none" fill-rule="evenodd">
        <g id="Дашборд-(пустой)" transform="translate(-1102.000000, -1148.000000)">
            <g id="#footer" transform="translate(0.000000, 1066.000000)">
                <g id="Group-2" transform="translate(1102.000000, 81.000000)">
                    <g id="contacts">
                        <g id="phone">
                            <g id="icon_phone" transform="translate(0.000000, 1.000000)">
                                <rect id="@bounds" fill-opacity="0" fill="#D0011B" x="0" y="0" width="16" height="16"></rect>
                                <path d="M8.5,0 C4.91055556,0 2,2.93090909 2,6.54545455 L2,11.6363636 C2,12.8436364 2.96777778,13.8181818 4.16666667,13.8181818 L6.33333333,13.8181818 L6.33333333,8 L3.44444444,8 L3.44444444,6.54545455 C3.44444444,3.73090909 5.705,1.45454545 8.5,1.45454545 C11.295,1.45454545 13.5555556,3.73090909 13.5555556,6.54545455 L13.5555556,8 L10.6666667,8 L10.6666667,13.8181818 L13.5555556,13.8181818 L13.5555556,14.5454545 L8.5,14.5454545 L8.5,16 L12.8333333,16 C14.0322222,16 15,15.0254545 15,13.8181818 L15,6.54545455 C15,2.93090909 12.0894444,0 8.5,0 L8.5,0 Z" id="Shape" fill="#000000"></path>
                            </g>
                        </g>
                    </g>
                </g>
            </g>
        </g>
    </g>
</svg>