
<svg width="63px" height="63px"  viewBox="0 0 63 63" version="1.1" xmlns="http://www.w3.org/2000/svg" xmlns:xlink="http://www.w3.org/1999/xlink">
    <!-- Generator: sketchtool 39.1 (31720) - http://www.bohemiancoding.com/sketch -->
    <title>C0234CEA-2756-4F52-81C9-1E4CEDF92C58</title>
    <desc>Created with sketchtool.</desc>
    <defs></defs>
    <g id="Page-3" stroke="none" stroke-width="1" fill="none" fill-rule="evenodd">
        <g id="Каталог-—-Детали-площадки-(портфолио)" transform="translate(-159.000000, -1324.000000)" fill="#FFFFFF">
            <g id="Group-6" transform="translate(55.000000, 692.000000)">
                <g id="Group-5" transform="translate(0.000000, 588.000000)">
                    <g id="icon_play" transform="translate(104.000000, 44.000000)">
                        <path d="M31.2283429,0.457142857 C14.0598857,0.457142857 0.142628571,14.3744 0.142628571,31.5428571 C0.142628571,48.7113143 14.0598857,62.6285714 31.2283429,62.6285714 C48.3968,62.6285714 62.3140571,48.7113143 62.3140571,31.5428571 C62.3140571,14.3744 48.3968,0.457142857 31.2283429,0.457142857 L31.2283429,0.457142857 Z M31.2283429,57.1428571 C17.0898286,57.1428571 5.62834286,45.6813714 5.62834286,31.5428571 C5.62834286,17.4043429 17.0898286,5.94285714 31.2283429,5.94285714 C45.3668571,5.94285714 56.8283429,17.4043429 56.8283429,31.5428571 C56.8283429,45.6813714 45.3668571,57.1428571 31.2283429,57.1428571 L31.2283429,57.1428571 Z" id="Shape"></path>
                        <polygon id="Shape" points="25.6 43.8180571 42.0571429 31.5428571 25.6 19.2676571"></polygon>
                    </g>
                </g>
            </g>
        </g>
    </g>
</svg>