<svg xmlns="http://www.w3.org/2000/svg"><symbol id="logo" viewBox="0 0 169 22"><title>AE9B68A1-90C2-4928-8BB8-10A23A95A4E1</title><path d="M7.005 6.14c.736-.02 1.36.06 1.874.235.514.177.984.431 1.41.764.155.098.286.23.392.396.107.167.228.319.364.456.038.039.096.088.174.147a.362.362 0 0 0 .29.058 1.02 1.02 0 0 0 .51-.367c.145-.186.295-.328.45-.426.271-.215.552-.406.843-.572.29-.167.61-.309.959-.426a2.58 2.58 0 0 1 .508-.132c.184-.03.364-.064.538-.103.097-.02.189-.03.276-.03h.276a.974.974 0 0 1 .407-.044c.175.01.3.025.378.044.097.02.242.03.436.03.174.039.344.073.509.103.164.029.324.073.48.132.096.039.188.063.275.073.088.01.18.034.276.074.97.43 1.638 1.096 2.006 1.997.077.156.136.328.174.514.039.186.078.386.117.602a.268.268 0 0 1 .043.19.416.416 0 0 0 .015.192v.264a.78.78 0 0 1 .014.264 2.98 2.98 0 0 0-.014.294v8.605c0 .313.005.686.014 1.116.01.431-.072.715-.247.852-.077.059-.203.103-.378.132-.174.03-.358.044-.552.044-.194 0-.383-.01-.567-.03-.184-.019-.315-.058-.392-.117-.116-.058-.194-.176-.233-.352a.78.78 0 0 1-.029-.367.78.78 0 0 0-.029-.367 1.258 1.258 0 0 1-.014-.338c.01-.127.014-.25.014-.367v-6.932c0-.646-.014-1.257-.043-1.835-.03-.578-.17-1.062-.422-1.454-.29-.47-.736-.812-1.337-1.028a1.497 1.497 0 0 0-.363-.073 1.965 1.965 0 0 1-.392-.074 1.394 1.394 0 0 0-.378-.014c-.175.01-.29.024-.349.044a.968.968 0 0 1-.29.014.604.604 0 0 0-.291.045 5.2 5.2 0 0 0-.785.234c-1.008.431-1.686 1.185-2.035 2.262-.096.333-.15.715-.16 1.145-.01.431-.014.872-.014 1.322v7.416c0 .245-.048.435-.145.572-.097.157-.262.245-.494.265-.233.02-.475.03-.727.03-.33 0-.572-.04-.727-.118-.174-.098-.276-.26-.305-.485a5.881 5.881 0 0 1-.043-.749v-7.636c0-.626-.02-1.209-.059-1.747-.038-.539-.174-1.004-.406-1.395-.214-.353-.456-.612-.727-.779-.271-.166-.64-.298-1.104-.396-.078-.02-.16-.03-.248-.03h-.276c-.426 0-.799.05-1.119.147-.32.098-.605.225-.857.382-.988.607-1.647 1.517-1.976 2.731a2.693 2.693 0 0 0-.102.867c.01.323.014.641.014.954v7.343c0 .274-.058.49-.174.646a.574.574 0 0 1-.436.235c-.194.02-.397.03-.61.03H.756a2.42 2.42 0 0 0-.335-.089.453.453 0 0 1-.276-.176.692.692 0 0 1-.145-.455V7.242c0-.186.039-.338.116-.455a.442.442 0 0 1 .262-.235c.155-.06.402-.089.741-.089.34 0 .586.03.741.089a.68.68 0 0 1 .32.293c.039.098.063.216.073.353.01.137.024.264.043.382.02.117.058.215.116.293.058.079.155.118.291.118a.18.18 0 0 1 .13-.059.18.18 0 0 0 .132-.059c.116-.098.227-.196.334-.293.106-.098.218-.196.334-.294.426-.313.91-.588 1.453-.823a2.58 2.58 0 0 1 .582-.161c.193-.03.397-.073.61-.132.116 0 .237-.005.363-.015.126-.01.247-.015.364-.015zm31.663 14.392c.058.313.03.572-.087.778a1.1 1.1 0 0 1-.465.455.807.807 0 0 1-.305.059c-.107 0-.218.02-.335.059a2.229 2.229 0 0 1-1.264-.074c-.416-.147-.702-.328-.857-.543a2.51 2.51 0 0 1-.262-.485 1.408 1.408 0 0 0-.29-.455 1.591 1.591 0 0 0-.131-.118c-.049-.039-.112-.048-.19-.029a1.55 1.55 0 0 0-.595.323 6.053 6.053 0 0 1-.538.411 6.4 6.4 0 0 1-.814.426c-.29.127-.6.24-.93.338a3.08 3.08 0 0 1-.625.117c-.222.02-.44.05-.653.089-.097.02-.18.029-.248.029h-.218a1.6 1.6 0 0 1-.61 0h-.261a1.464 1.464 0 0 0-.291-.03.572.572 0 0 1-.262-.058.441.441 0 0 0-.189-.015.307.307 0 0 1-.16-.015 7.911 7.911 0 0 0-.465-.102c-.155-.03-.3-.074-.435-.133-.582-.254-1.052-.543-1.41-.866-.359-.323-.654-.778-.887-1.366-.174-.43-.261-.95-.261-1.556v-.617c.02-.098.034-.2.043-.308.01-.108.025-.22.044-.338l.233-.646c.077-.216.174-.411.29-.588a3.194 3.194 0 0 1 1.424-1.263c.601-.274 1.26-.518 1.977-.734.271-.078.552-.137.843-.176.29-.04.58-.088.872-.147.135-.039.266-.059.392-.059s.266-.02.421-.058c.136-.04.272-.064.407-.074.136-.01.281-.034.436-.073.485-.118.94-.22 1.366-.309a1.608 1.608 0 0 0 1.018-.66 2.04 2.04 0 0 0 .29-.602 1.429 1.429 0 0 0 0-.808c-.116-.47-.286-.842-.508-1.116-.223-.274-.538-.49-.945-.646a3.115 3.115 0 0 0-.828-.206 8.613 8.613 0 0 0-2.02 0c-.33.04-.61.098-.843.176-.33.118-.65.284-.96.5a1.9 1.9 0 0 0-.42.455 3.992 3.992 0 0 0-.335.602 6.028 6.028 0 0 0-.16.5.726.726 0 0 1-.276.41c-.078.06-.208.103-.392.133a3.592 3.592 0 0 1-1.134 0c-.184-.03-.315-.074-.392-.133a.539.539 0 0 1-.175-.293.848.848 0 0 1 0-.44c.058-.255.121-.495.19-.72.067-.226.15-.446.246-.661.368-.686.833-1.22 1.395-1.6.562-.383 1.26-.691 2.093-.926a5.82 5.82 0 0 1 .596-.088c.203-.02.412-.05.625-.088.077-.02.203-.025.378-.015.174.01.28-.005.32-.044 1.356-.02 2.538.137 3.545.47 1.008.333 1.715.97 2.122 1.909.174.392.276.847.305 1.366.03.519.044 1.062.044 1.63v6.49c0 .274.01.539.029.793.02.255.077.46.174.617a.801.801 0 0 0 .378.294c.174.078.34.132.494.161.155.03.271.123.349.28a.318.318 0 0 1 .058.176c0 .058.01.137.03.235zm-4.156-3.26a2.61 2.61 0 0 0 .189-.955c.01-.362.014-.74.014-1.13 0-.216-.01-.412-.029-.588a.558.558 0 0 0-.232-.411c-.058-.04-.194-.06-.407-.06-.039.04-.107.06-.204.06a.572.572 0 0 0-.261.058c-.155.04-.33.079-.523.118l-.582.117c-.058 0-.12.005-.189.015-.067.01-.14.015-.218.015-.29.078-.605.122-.944.132-.34.01-.654.054-.945.132-.155.04-.295.074-.421.103-.126.03-.267.064-.422.103-.31.098-.6.22-.872.367a2.581 2.581 0 0 0-.697.543c-.194.215-.34.475-.436.778-.097.304-.136.671-.116 1.102 0 .196.033.377.101.543.068.167.15.318.247.455.155.216.359.397.61.544.253.147.524.269.815.367.096.02.193.03.29.03.097 0 .194.009.29.029.136.039.306.063.51.073.203.01.372-.005.508-.044a.857.857 0 0 1 .349-.044.857.857 0 0 0 .349-.044c.155-.04.305-.069.45-.088a1.59 1.59 0 0 0 .422-.118 5.564 5.564 0 0 0 1.438-.852c.397-.332.703-.783.916-1.35zM42.662.706c.271 0 .557.005.857.015.3.01.509.093.625.25a.666.666 0 0 1 .131.381c.01.157.015.333.015.529v9.046c0 .098-.005.2-.015.308-.01.108-.005.21.015.308v.235c0 .196.029.363.087.5.02.058.048.102.087.132.039.03.078.063.116.103.175.02.305-.005.393-.074.087-.068.179-.142.276-.22.097-.078.174-.157.232-.235.058-.078.126-.147.204-.206.155-.098.29-.21.407-.337.116-.128.242-.26.377-.397.097-.098.19-.186.277-.264.087-.079.179-.167.276-.265a.752.752 0 0 0 .16-.146c.048-.06.092-.108.13-.147a.414.414 0 0 1 .088-.074.414.414 0 0 0 .087-.073c.077-.098.155-.181.232-.25.078-.068.165-.142.262-.22.039-.059.087-.117.145-.176l.175-.176c.174-.137.334-.284.48-.441.144-.157.304-.303.479-.44.058-.06.116-.123.174-.191.058-.069.116-.133.174-.191.252-.196.475-.411.669-.646.194-.235.426-.441.697-.617a1.43 1.43 0 0 1 .596-.191 6.67 6.67 0 0 1 .8-.044c.096 0 .198-.005.305-.015a.827.827 0 0 1 .276.015h.32c.155.039.28.073.377.103.097.029.146.132.146.308a.264.264 0 0 0-.073.147.264.264 0 0 1-.073.147.877.877 0 0 1-.16.176 2 2 0 0 1-.188.147.417.417 0 0 0-.073.088.417.417 0 0 1-.073.088.648.648 0 0 0-.203.162.875.875 0 0 1-.175.161 2.623 2.623 0 0 1-.174.162.755.755 0 0 0-.145.161c-.155.118-.3.245-.436.382a4.077 4.077 0 0 1-.436.382l-.145.147a1.164 1.164 0 0 0-.146.176 3.377 3.377 0 0 0-.523.455c-.155.166-.33.318-.523.455a.755.755 0 0 1-.145.162.755.755 0 0 0-.146.161 3.182 3.182 0 0 0-.261.235 3.182 3.182 0 0 1-.262.235 3.36 3.36 0 0 0-.276.25 1.45 1.45 0 0 0-.218.279c-.039.04-.087.108-.145.205a.32.32 0 0 0-.03.294c.04.216.112.392.219.529.106.137.208.284.305.44.155.216.3.436.436.661.135.225.271.446.407.661.542.803 1.075 1.596 1.598 2.379.523.783 1.046 1.586 1.57 2.408.116.157.222.314.32.47.096.157.203.313.32.47.077.118.154.23.232.338.077.108.145.23.203.367a.72.72 0 0 1 .087.426c-.02.127-.106.21-.261.25a.93.93 0 0 1-.35.058h-.377c-.271 0-.547.005-.828.015-.281.01-.509-.025-.683-.103-.252-.117-.48-.347-.683-.69a11.657 11.657 0 0 0-.538-.837l-1.308-2.012c-.426-.656-.862-1.317-1.308-1.982-.174-.275-.344-.544-.508-.808a16.718 16.718 0 0 0-.538-.808 1.967 1.967 0 0 0-.247-.264.4.4 0 0 0-.393-.088.824.824 0 0 0-.392.22 5.01 5.01 0 0 1-.334.308 2.34 2.34 0 0 0-.276.265 2.34 2.34 0 0 1-.276.264 2.719 2.719 0 0 0-.538.514 1.681 1.681 0 0 0-.305.72c0 .078-.005.156-.015.235-.01.078-.014.156-.014.235a1.35 1.35 0 0 0-.015.352c.01.137.015.264.015.382v3.201c0 .274-.049.49-.146.646-.097.137-.261.21-.494.22-.232.01-.475.015-.726.015h-.32a.77.77 0 0 1-.29-.059c-.233-.078-.364-.244-.393-.499a7.857 7.857 0 0 1-.044-.88V2.263c0-.216-.005-.44-.014-.676-.01-.235.034-.42.13-.558.078-.137.223-.235.436-.294a.162.162 0 0 1 .117-.014c.038.01.077.005.116-.015zM70.46 13.453c.039.196.043.417.014.661-.029.245-.092.416-.189.514a.888.888 0 0 1-.42.162c-.185.03-.393.044-.626.044-.232 0-.465-.005-.697-.015-.233-.01-.436-.015-.61-.015H60.49c-.155 0-.31.005-.465.015a.824.824 0 0 0-.378.103.661.661 0 0 0-.233.235 1.21 1.21 0 0 0-.116.25.423.423 0 0 0 0 .308c.02.098.03.186.03.264 0 .079.009.157.028.235.039.157.078.318.116.485.04.166.097.328.175.484.445 1.058 1.182 1.812 2.209 2.262.116.059.242.108.378.147l.406.117c.059.02.155.03.291.03.271.078.63.117 1.076.117.445 0 .804-.04 1.075-.117.271-.079.518-.162.741-.25.223-.088.431-.2.625-.338.213-.137.397-.298.552-.484.155-.186.29-.387.407-.603a4.55 4.55 0 0 0 .305-.616.853.853 0 0 1 .45-.47c.078-.04.204-.069.379-.088.174-.02.348-.025.523-.015.174.01.339.024.494.044.155.02.261.059.32.118.193.137.242.362.145.675a5.82 5.82 0 0 1-.61 1.41c-.388.626-.829 1.14-1.323 1.542-.494.401-1.119.729-1.875.984a2.58 2.58 0 0 1-.58.161c-.195.03-.398.064-.611.103-.097.02-.19.03-.276.03-.088 0-.18.01-.276.029h-.291a1.7 1.7 0 0 1-.334.029c-.126 0-.228-.01-.306-.03h-.261a1.334 1.334 0 0 0-.262-.029.946.946 0 0 1-.232-.03 2.81 2.81 0 0 0-.32-.043 2.81 2.81 0 0 1-.32-.044c-.174-.04-.348-.083-.523-.132a5.877 5.877 0 0 1-.494-.162.738.738 0 0 0-.203-.073.738.738 0 0 1-.204-.074c-.29-.137-.6-.303-.93-.499a5.647 5.647 0 0 1-1.439-1.366 8.306 8.306 0 0 1-1.002-1.806 3.232 3.232 0 0 1-.218-.675 6.328 6.328 0 0 0-.19-.705.871.871 0 0 1-.028-.206c0-.059-.01-.137-.03-.235a3.815 3.815 0 0 1-.087-.5 5.009 5.009 0 0 0-.087-.528v-.411a2.061 2.061 0 0 1-.043-.338c-.01-.147-.005-.269.014-.367v-.323a.665.665 0 0 0 .044-.308c-.01-.108-.005-.21.014-.309.078-.313.14-.626.19-.94.048-.313.13-.606.246-.88.097-.216.19-.436.276-.661.088-.226.19-.446.306-.661a8.489 8.489 0 0 1 1.453-1.777c.542-.5 1.21-.915 2.005-1.248.233-.098.47-.172.712-.22.243-.05.5-.103.77-.162.097-.02.185-.034.262-.044.078-.01.165-.015.262-.015.039-.02.087-.02.145 0 .058.02.107.01.145-.03.814-.019 1.521.064 2.122.25.6.186 1.143.436 1.628.75.097.039.174.092.232.16a.648.648 0 0 0 .204.162c.155.118.315.255.48.412.164.156.304.313.42.47.31.41.572.802.785 1.174.136.216.243.45.32.705.078.255.165.51.262.764s.17.519.218.793c.048.274.111.548.189.822.02.137.034.274.043.411.01.137.025.274.044.411zm-2.82-.998a1.01 1.01 0 0 0 .146-.309.69.69 0 0 0 0-.396 5.066 5.066 0 0 0-.494-1.204A5.445 5.445 0 0 0 66.39 9.4c-.33-.313-.756-.577-1.279-.793a6.187 6.187 0 0 0-.407-.102c-.136-.03-.28-.064-.436-.103a2.011 2.011 0 0 0-.494-.059h-.494a.288.288 0 0 1-.204.044.456.456 0 0 0-.203.015 9.63 9.63 0 0 1-.45.103c-.146.029-.286.063-.422.102-.562.235-1.012.53-1.351.882-.34.352-.645.793-.916 1.321-.058.098-.116.22-.174.367a3.162 3.162 0 0 0-.146.485 1.474 1.474 0 0 0-.029.5c.02.156.087.273.204.352.155.117.421.17.799.161.378-.01.702-.015.974-.015h4.417c.291 0 .64.005 1.047.015.407.01.678-.063.814-.22zm7.453 5.962c.175 0 .368-.005.582-.015.213-.01.421-.01.624 0 .204.01.393.03.567.059.175.03.31.083.407.161.039.04.073.098.102.177.029.078.063.166.102.264v.147c.019.098.024.2.014.308-.01.108-.014.21-.014.309v.925c0 .342-.078.582-.233.72a.847.847 0 0 1-.509.146H75.224c-.3 0-.528-.059-.683-.176-.078-.059-.136-.162-.174-.308a2.467 2.467 0 0 1-.073-.5 5.36 5.36 0 0 1 0-.558c.01-.186.014-.347.014-.484v-.382a.87.87 0 0 1 .059-.323c.077-.216.213-.353.407-.411.058 0 .164-.02.32-.06zm20.416-4.964c.038.196.043.417.014.661-.029.245-.092.416-.189.514a.888.888 0 0 1-.421.162c-.184.03-.393.044-.625.044-.233 0-.465-.005-.698-.015-.232-.01-.436-.015-.61-.015h-7.44c-.155 0-.31.005-.466.015a.824.824 0 0 0-.377.103.661.661 0 0 0-.233.235 1.21 1.21 0 0 0-.116.25.423.423 0 0 0 0 .308c.02.098.029.186.029.264 0 .079.01.157.029.235.039.157.078.318.116.485.039.166.097.328.175.484.445 1.058 1.182 1.812 2.209 2.262.116.059.242.108.377.147l.407.117c.058.02.155.03.29.03.272.078.63.117 1.076.117.446 0 .804-.04 1.076-.117.271-.079.518-.162.74-.25.224-.088.432-.2.626-.338.213-.137.397-.298.552-.484.155-.186.29-.387.407-.603a4.55 4.55 0 0 0 .305-.616.853.853 0 0 1 .45-.47c.078-.04.204-.069.378-.088.175-.02.35-.025.524-.015.174.01.339.024.494.044.155.02.261.059.32.118.193.137.242.362.145.675a5.82 5.82 0 0 1-.61 1.41c-.388.626-.829 1.14-1.323 1.542-.494.401-1.12.729-1.875.984a2.58 2.58 0 0 1-.581.161c-.194.03-.397.064-.61.103-.097.02-.19.03-.277.03-.087 0-.179.01-.276.029h-.29a1.7 1.7 0 0 1-.335.029c-.125 0-.227-.01-.305-.03h-.261a1.334 1.334 0 0 0-.262-.029.946.946 0 0 1-.232-.03 2.81 2.81 0 0 0-.32-.043 2.81 2.81 0 0 1-.32-.044c-.174-.04-.349-.083-.523-.132a5.877 5.877 0 0 1-.494-.162.738.738 0 0 0-.204-.073.738.738 0 0 1-.203-.074c-.29-.137-.6-.303-.93-.499a5.647 5.647 0 0 1-1.439-1.366 8.306 8.306 0 0 1-1.002-1.806 3.232 3.232 0 0 1-.218-.675 6.328 6.328 0 0 0-.19-.705.871.871 0 0 1-.028-.206c0-.059-.01-.137-.03-.235a3.815 3.815 0 0 1-.087-.5 5.009 5.009 0 0 0-.087-.528v-.411a2.061 2.061 0 0 1-.043-.338c-.01-.147-.005-.269.014-.367v-.323a.665.665 0 0 0 .044-.308c-.01-.108-.005-.21.014-.309.078-.313.14-.626.19-.94.048-.313.13-.606.246-.88.097-.216.19-.436.276-.661.087-.226.19-.446.305-.661a8.489 8.489 0 0 1 1.454-1.777c.542-.5 1.21-.915 2.005-1.248.233-.098.47-.172.712-.22.242-.05.5-.103.77-.162.097-.02.185-.034.262-.044.078-.01.165-.015.262-.015.038-.02.087-.02.145 0 .058.02.106.01.145-.03.814-.019 1.521.064 2.122.25.6.186 1.143.436 1.628.75.096.039.174.092.232.16a.648.648 0 0 0 .204.162c.155.118.314.255.48.412.164.156.304.313.42.47.31.41.572.802.785 1.174.136.216.243.45.32.705.078.255.165.51.262.764.096.254.17.519.218.793.048.274.111.548.188.822.02.137.034.274.044.411.01.137.024.274.044.411zm-2.82-.998a1.01 1.01 0 0 0 .146-.309.69.69 0 0 0 0-.396 5.066 5.066 0 0 0-.494-1.204A5.445 5.445 0 0 0 91.44 9.4c-.33-.313-.756-.577-1.28-.793a6.187 6.187 0 0 0-.406-.102c-.136-.03-.281-.064-.436-.103a2.011 2.011 0 0 0-.494-.059h-.494a.288.288 0 0 1-.204.044.456.456 0 0 0-.203.015 9.63 9.63 0 0 1-.45.103c-.146.029-.286.063-.422.102-.562.235-1.013.53-1.352.882-.339.352-.644.793-.915 1.321-.058.098-.116.22-.175.367a3.162 3.162 0 0 0-.145.485 1.474 1.474 0 0 0-.029.5c.02.156.087.273.204.352.155.117.42.17.799.161.378-.01.702-.015.973-.015h4.418c.29 0 .64.005 1.047.015.407.01.678-.063.813-.22zm5.593-5.962h.93c.33 0 .581.059.756.176.135.098.227.22.276.367.048.147.101.299.16.455.116.275.213.549.29.823.078.274.165.548.262.822.387 1.057.746 2.12 1.075 3.187.33 1.067.688 2.129 1.076 3.186.135.353.252.71.348 1.072.097.363.223.72.378 1.072.039.137.087.284.146.44.058.157.155.255.29.295.155.039.276-.03.364-.206.087-.176.15-.313.188-.411a9.76 9.76 0 0 0 .393-1.131c.106-.382.228-.768.363-1.16.252-.744.494-1.483.727-2.217.232-.735.474-1.474.726-2.218.097-.333.194-.66.291-.984.097-.323.213-.641.349-.954.097-.274.184-.548.261-.823.078-.274.165-.548.262-.822.039-.137.087-.274.145-.411.058-.137.136-.255.233-.353a1.19 1.19 0 0 1 .523-.176 7.075 7.075 0 0 1 1.075-.014c.117.01.223.034.32.073.174.078.266.206.276.382.01.176-.024.352-.102.528-.116.333-.232.676-.348 1.028a9.43 9.43 0 0 1-.407 1.028c-.039.098-.068.191-.087.28a1.83 1.83 0 0 1-.088.278 6.532 6.532 0 0 0-.377 1.028 7.686 7.686 0 0 1-.378 1.058c-.097.254-.19.514-.276.778a7.61 7.61 0 0 1-.306.778c-.329.803-.624 1.615-.886 2.438a31.858 31.858 0 0 1-.887 2.437c-.116.314-.222.627-.32.94a9.226 9.226 0 0 1-.348.94c-.097.216-.18.416-.247.602-.068.186-.208.328-.422.426a.858.858 0 0 1-.392.088h-.45c-.31 0-.61-.005-.901-.014-.291-.01-.504-.103-.64-.28a1.39 1.39 0 0 1-.29-.572 4.117 4.117 0 0 0-.233-.661 14.657 14.657 0 0 1-.334-.866l-.305-.867a2.683 2.683 0 0 1-.088-.25 2.684 2.684 0 0 0-.087-.25c-.387-.939-.74-1.889-1.06-2.848-.32-.96-.674-1.909-1.062-2.849a55.747 55.747 0 0 1-.334-.925 55.746 55.746 0 0 0-.334-.925 2.867 2.867 0 0 1-.102-.308 2.867 2.867 0 0 0-.101-.309 8.518 8.518 0 0 1-.393-.998 13.784 13.784 0 0 0-.363-.999 17.164 17.164 0 0 1-.145-.47c-.059-.196-.049-.362.029-.5a.79.79 0 0 1 .348-.205c.136 0 .214-.01.233-.03zm28.728 6.96c.039.196.043.417.014.661-.029.245-.092.416-.189.514a.888.888 0 0 1-.421.162c-.184.03-.392.044-.625.044-.232 0-.465-.005-.697-.015-.233-.01-.436-.015-.61-.015h-7.441c-.155 0-.31.005-.465.015a.824.824 0 0 0-.378.103.661.661 0 0 0-.233.235 1.21 1.21 0 0 0-.116.25.423.423 0 0 0 0 .308c.02.098.03.186.03.264 0 .079.009.157.028.235.039.157.078.318.116.485.04.166.097.328.175.484.445 1.058 1.182 1.812 2.209 2.262.116.059.242.108.378.147l.406.117c.059.02.155.03.291.03.271.078.63.117 1.076.117.445 0 .804-.04 1.075-.117.271-.079.518-.162.741-.25.223-.088.431-.2.625-.338.213-.137.397-.298.552-.484.155-.186.29-.387.407-.603a4.55 4.55 0 0 0 .305-.616.853.853 0 0 1 .45-.47c.078-.04.204-.069.379-.088.174-.02.348-.025.523-.015.174.01.339.024.494.044.155.02.261.059.32.118.193.137.242.362.145.675a5.82 5.82 0 0 1-.61 1.41c-.388.626-.829 1.14-1.323 1.542-.494.401-1.119.729-1.875.984a2.58 2.58 0 0 1-.58.161c-.195.03-.398.064-.611.103-.097.02-.19.03-.276.03-.088 0-.18.01-.276.029h-.291a1.7 1.7 0 0 1-.334.029c-.126 0-.228-.01-.306-.03h-.261a1.334 1.334 0 0 0-.262-.029.946.946 0 0 1-.232-.03 2.81 2.81 0 0 0-.32-.043 2.81 2.81 0 0 1-.32-.044c-.174-.04-.348-.083-.523-.132a5.877 5.877 0 0 1-.494-.162.738.738 0 0 0-.203-.073.738.738 0 0 1-.204-.074c-.29-.137-.6-.303-.93-.499a5.647 5.647 0 0 1-1.439-1.366 8.306 8.306 0 0 1-1.002-1.806 3.232 3.232 0 0 1-.218-.675 6.328 6.328 0 0 0-.19-.705.871.871 0 0 1-.028-.206c0-.059-.01-.137-.03-.235a3.815 3.815 0 0 1-.087-.5 5.009 5.009 0 0 0-.087-.528v-.411a2.061 2.061 0 0 1-.043-.338c-.01-.147-.005-.269.014-.367v-.323a.665.665 0 0 0 .044-.308c-.01-.108-.005-.21.014-.309.078-.313.14-.626.19-.94.048-.313.13-.606.246-.88.097-.216.19-.436.276-.661.088-.226.19-.446.306-.661a8.489 8.489 0 0 1 1.453-1.777c.542-.5 1.21-.915 2.005-1.248.233-.098.47-.172.712-.22.243-.05.5-.103.77-.162.097-.02.185-.034.262-.044.078-.01.165-.015.262-.015.039-.02.087-.02.145 0 .058.02.107.01.145-.03.814-.019 1.521.064 2.122.25.6.186 1.143.436 1.628.75.097.039.174.092.232.16a.648.648 0 0 0 .204.162c.155.118.315.255.48.412.164.156.304.313.42.47.31.41.572.802.785 1.174.136.216.243.45.32.705.078.255.165.51.262.764s.17.519.218.793c.048.274.111.548.189.822.019.137.034.274.043.411.01.137.024.274.044.411zm-2.82-.998a1.01 1.01 0 0 0 .146-.309.69.69 0 0 0 0-.396 5.066 5.066 0 0 0-.494-1.204 5.445 5.445 0 0 0-.901-1.146c-.33-.313-.756-.577-1.279-.793a6.187 6.187 0 0 0-.407-.102c-.136-.03-.28-.064-.436-.103a2.011 2.011 0 0 0-.494-.059h-.494a.288.288 0 0 1-.204.044.456.456 0 0 0-.203.015 9.63 9.63 0 0 1-.45.103c-.146.029-.286.063-.422.102-.562.235-1.012.53-1.351.882-.34.352-.645.793-.916 1.321-.058.098-.116.22-.174.367a3.162 3.162 0 0 0-.146.485 1.474 1.474 0 0 0-.029.5c.02.156.087.273.204.352.155.117.421.17.799.161.378-.01.702-.015.974-.015h4.417c.291 0 .64.005 1.047.015.407.01.678-.063.814-.22zm13.179-6.256c1.22-.039 2.2.127 2.935.5.737.371 1.328.93 1.773 1.674.117.195.209.406.277.63.067.226.13.456.188.691.097.372.155.774.175 1.204.02.431.029.872.029 1.322v7.724c0 .333-.005.666-.015.999-.01.333-.14.548-.392.646-.097.039-.199.063-.305.073-.107.01-.218.015-.334.015-.252 0-.495-.005-.727-.015-.233-.01-.397-.093-.494-.25a.895.895 0 0 1-.145-.528v-7.959c0-.529-.01-1.053-.03-1.571-.019-.52-.106-.965-.261-1.337a2.239 2.239 0 0 0-.698-.954 3.544 3.544 0 0 0-1.075-.573 1.497 1.497 0 0 0-.363-.073 1.497 1.497 0 0 1-.364-.074 2.006 2.006 0 0 0-.45-.015 2.5 2.5 0 0 0-.422.045.335.335 0 0 1-.203.044.5.5 0 0 0-.204.014c-.251.059-.489.123-.712.191a2.771 2.771 0 0 0-.624.28c-.078.038-.146.077-.204.117-.058.039-.126.078-.203.117-.679.49-1.173 1.224-1.483 2.203a2.079 2.079 0 0 0-.116.484c-.02.167-.048.328-.087.485a.472.472 0 0 0-.03.279c.02.088.01.171-.028.25v.616a.47.47 0 0 0-.015.206c.01.078.015.166.015.264v6.946c0 .225-.049.407-.146.544-.096.156-.266.24-.508.25-.242.009-.49.014-.741.014-.155 0-.3-.01-.436-.03a.703.703 0 0 1-.35-.146c-.154-.098-.232-.284-.232-.558V7.256c0-.176.04-.313.117-.41a.445.445 0 0 1 .29-.236c.078-.02.19-.039.335-.058a3.372 3.372 0 0 1 .9 0c.146.02.248.049.306.088.213.137.31.308.29.514-.019.205.01.435.088.69a.565.565 0 0 0 .232.294.605.605 0 0 0 .567-.265c.145-.196.295-.352.45-.47.272-.195.548-.377.829-.543.28-.166.605-.308.973-.426a2.04 2.04 0 0 1 .509-.117c.184-.02.363-.05.538-.088.097-.02.193-.03.29-.03h.291zm11.522-4.288c.29 0 .58.005.872.015.29.01.494.093.61.25.097.117.15.279.16.484.01.206.014.416.014.632v1.703c0 .157-.005.318-.014.485-.01.166.005.308.043.425.078.275.252.45.524.53.096.019.188.028.276.028h.276c.213 0 .474-.004.785-.014.31-.01.532.014.668.073.174.118.29.235.349.353a.588.588 0 0 1 .058.264v.294c0 .215-.01.416-.03.602a.614.614 0 0 1-.203.426c-.116.098-.276.151-.48.161a6.96 6.96 0 0 1-.639 0c-.222-.01-.44-.015-.654-.015-.213 0-.397.03-.552.089a.537.537 0 0 0-.29.293 1.69 1.69 0 0 0-.117.485 3.9 3.9 0 0 0-.014.587c.01.206.014.407.014.602v5.816c0 .43-.005.885-.014 1.365-.01.48.072.847.247 1.102a.755.755 0 0 0 .378.323c.155.058.339.107.552.146.058.02.121.025.189.015a.404.404 0 0 1 .189.015h.378c.193 0 .373.015.537.044a.52.52 0 0 1 .364.22.93.93 0 0 1 .101.309c.03.146.049.298.058.455.01.156.005.308-.014.455a.724.724 0 0 1-.116.338c-.078.137-.223.235-.436.293-.155.04-.33.054-.523.045-.194-.01-.369-.015-.524-.015-.116 0-.232.005-.348.015-.117.01-.223.004-.32-.015h-.349a2.477 2.477 0 0 0-.552-.059 7.185 7.185 0 0 1-1.003-.323 1.588 1.588 0 0 1-.712-.617c-.271-.391-.426-.886-.465-1.483a29.8 29.8 0 0 1-.058-1.924V9.49a3.837 3.837 0 0 0-.16-.558c-.048-.118-.189-.216-.421-.294a.468.468 0 0 0-.233 0 .325.325 0 0 1-.232-.03h-.465c-.252 0-.46-.024-.625-.073a.486.486 0 0 1-.335-.338.76.76 0 0 1-.072-.264 2.98 2.98 0 0 1-.015-.294c0-.274.02-.504.058-.69.04-.186.155-.328.35-.426.212-.078.488-.098.827-.059.34.04.625.02.858-.058.174-.098.31-.235.407-.411.039-.118.058-.265.058-.441V2.748c0-.166.02-.308.058-.426.078-.156.223-.284.436-.381a.808.808 0 0 0 .16-.015.667.667 0 0 1 .13-.015zm12.713 4.23c1.395-.02 2.567.141 3.517.484.95.343 1.686.945 2.209 1.806.135.216.242.436.32.661.077.225.154.475.232.749.039.137.048.279.029.426-.02.147-.048.26-.087.338a.553.553 0 0 1-.146.102.553.553 0 0 0-.145.103.498.498 0 0 1-.29.03.726.726 0 0 0-.291 0c-.155.039-.359.044-.61.014-.252-.03-.427-.073-.524-.132a.684.684 0 0 1-.305-.396 1.961 1.961 0 0 0-.218-.485 2.98 2.98 0 0 0-.726-.852 2.346 2.346 0 0 0-.698-.352 22.227 22.227 0 0 0-.814-.235.604.604 0 0 0-.29-.044.968.968 0 0 1-.291-.015 1.383 1.383 0 0 0-.436-.059c-.174 0-.32.02-.436.06h-.174c-.097.019-.194.033-.291.043-.097.01-.194.025-.29.044-.505.118-.921.284-1.25.5-.33.215-.553.577-.669 1.086a.845.845 0 0 0-.015.411c.03.137.063.255.102.353.116.294.257.504.422.631.164.128.373.27.625.426.31.196.658.338 1.046.426.387.088.775.19 1.162.308.252.079.504.137.756.177.252.039.504.097.756.176.407.117.804.23 1.191.338.388.107.776.24 1.163.396l.29.118c.098.039.194.088.291.146.388.235.727.5 1.018.793.29.294.532.666.726 1.116.039.137.078.323.116.558.04.137.063.28.073.426.01.147.015.309.015.485v.294a1.505 1.505 0 0 0-.058.41c0 .138-.02.275-.059.412a5.734 5.734 0 0 1-.203.617 3.658 3.658 0 0 1-1.453 1.747 8.387 8.387 0 0 1-1.628.778 3.32 3.32 0 0 1-.538.133 3.32 3.32 0 0 0-.537.132c-.194.039-.388.059-.582.059-.193 0-.387.02-.58.058h-.292c-.096.02-.232.03-.406.03-.175 0-.31-.01-.407-.03h-.32a.957.957 0 0 0-.378-.044.778.778 0 0 1-.349-.044 1.972 1.972 0 0 0-.378-.03 9.63 9.63 0 0 0-.45-.102 2.889 2.889 0 0 1-.45-.132 6.5 6.5 0 0 1-1.57-.734 4.324 4.324 0 0 1-1.163-1.146 4.532 4.532 0 0 1-.436-.793 8.219 8.219 0 0 1-.32-.91 1.152 1.152 0 0 1-.043-.426c.01-.167.034-.299.073-.397a.951.951 0 0 1 .29-.235c.097-.039.233-.063.407-.073.175-.01.35-.005.524.015.174.02.343.044.508.073.165.03.276.064.334.103a.73.73 0 0 1 .277.426c.048.186.11.357.188.514.194.43.456.763.785.998.233.177.494.314.785.411.29.098.6.196.93.294l.61.088h.175c.135.04.315.059.537.059.223 0 .412-.02.567-.059.136 0 .242-.01.32-.03.116-.019.232-.033.349-.043a2.81 2.81 0 0 0 .32-.044c.561-.157 1.007-.362 1.336-.617.33-.254.562-.685.698-1.292a.599.599 0 0 0 .029-.323 1.889 1.889 0 0 0-.058-.265c-.097-.372-.233-.65-.407-.837a2.886 2.886 0 0 0-.669-.514 2.706 2.706 0 0 0-.58-.293l-.64-.235a.504.504 0 0 0-.16-.03.293.293 0 0 1-.16-.058 12.767 12.767 0 0 0-2.049-.485 8.652 8.652 0 0 1-1.991-.543 9.98 9.98 0 0 0-.552-.206 2.292 2.292 0 0 1-.494-.235 6.44 6.44 0 0 1-1.018-.734 2.816 2.816 0 0 1-.857-1.44 13.52 13.52 0 0 0-.102-.44 2.665 2.665 0 0 1-.058-.807c.02-.304.049-.563.087-.779.04-.098.063-.18.073-.25a.733.733 0 0 1 .073-.22c.174-.45.411-.842.712-1.174.3-.333.644-.627 1.032-.882.29-.176.61-.318.959-.425.348-.108.717-.21 1.104-.309l.393-.058c.125-.02.266-.04.421-.06a.46.46 0 0 1 .233 0c.096.02.164.01.203-.029z" fill-rule="evenodd"/></symbol></svg>